<?xml version="1.0" standalone="no"?>
<!DOCTYPE svg PUBLIC "-//W3C//DTD SVG 1.1//EN" "http://www.w3.org/Graphics/SVG/1.1/DTD/svg11.dtd" >
<!--
2013-9-30: Created.
-->
<svg>
<metadata>
Created by iconfont
</metadata>
<defs>

<font id="iconfont" horiz-adv-x="1024" >
  <font-face
    font-family="iconfont"
    font-weight="500"
    font-stretch="normal"
    units-per-em="1024"
    ascent="896"
    descent="-128"
  />
    <missing-glyph />
    
    <glyph glyph-name="x" unicode="x" horiz-adv-x="1001"
d="M281 543q-27 -1 -53 -1h-83q-18 0 -36.5 -6t-32.5 -18.5t-23 -32t-9 -45.5v-76h912v41q0 16 -0.5 30t-0.5 18q0 13 -5 29t-17 29.5t-31.5 22.5t-49.5 9h-133v-97h-438v97zM955 310v-52q0 -23 0.5 -52t0.5 -58t-10.5 -47.5t-26 -30t-33 -16t-31.5 -4.5q-14 -1 -29.5 -0.5
t-29.5 0.5h-32l-45 128h-439l-44 -128h-29h-34q-20 0 -45 1q-25 0 -41 9.5t-25.5 23t-13.5 29.5t-4 30v167h911zM163 247q-12 0 -21 -8.5t-9 -21.5t9 -21.5t21 -8.5q13 0 22 8.5t9 21.5t-9 21.5t-22 8.5zM316 123q-8 -26 -14 -48q-5 -19 -10.5 -37t-7.5 -25t-3 -15t1 -14.5
t9.5 -10.5t21.5 -4h37h67h81h80h64h36q23 0 34 12t2 38q-5 13 -9.5 30.5t-9.5 34.5q-5 19 -11 39h-368zM336 498v228q0 11 2.5 23t10 21.5t20.5 15.5t34 6h188q31 0 51.5 -14.5t20.5 -52.5v-227h-327z" />
    

    
    <glyph glyph-name="dingdan" unicode="&#58940;" d="M603.792613 827.35048 409.943626 827.35048c-23.77652 0-42.785455-21.154809-42.785455-47.303352 0-26.208918 19.043728-47.426149 42.785455-47.426149l195.048301 0c22.580275 0 41.617863 21.217231 41.617863 47.426149C646.614907 806.196695 627.599831 827.35048 603.792613 827.35048L603.792613 827.35048 603.792613 827.35048zM814.280558 795.778414l-96.531544 0c0.981351-5.183046 1.548262-10.425444 1.548262-15.731286 0.029676-39.817867-28.855188-79.006402-63.21474-79.006402L359.51919 701.040726c-36.160571 0-65.084321 39.188534-65.084321 79.006402 0.034792 5.305843 0.601704 10.54824 1.583055 15.731286l-97.698113 0c-78.533634 0-97.828073-44.523029-97.828073-108.750843l0-636.20993c0-68.995397 27.629267-107.61088 103.758132-107.61088l604.094488 0c76.129888 0 113.137757 30.27656 113.137757 107.576087L921.482115 687.028595c0.00614 64.221674-34.641985 108.744703-107.200534 108.744703l0 0L814.281581 795.778414zM715.102744 167.619858 295.321052 167.619858c-15.47239 0-30.918173 18.980283-30.918173 34.477232 0 15.44476 13.072737 28.675086 28.54615 28.675086l418.5834 0c15.468296 0 28.54001-12.025894 29.713742-28.675086C741.246171 186.595025 730.571041 167.619858 715.102744 167.619858L715.102744 167.619858 715.102744 167.619858zM716.808596 336.074478 297.021787 336.074478c-15.474436 0-25.326828 16.636912-25.326828 32.145118 0 15.503089 13.078877 31.007201 28.54615 31.007201l418.5834 0c15.474436 0 28.54615-14.364149 29.713742-31.007201C748.539274 352.716506 732.24824 336.074478 716.808596 336.074478L716.808596 336.074478 716.808596 336.074478zM716.808596 509.084856 297.021787 509.084856c-15.474436 0-25.326828 16.643052-25.326828 32.145118 0 15.504112 13.078877 31.007201 28.54615 31.007201l418.5834 0c15.474436 0 28.54615-14.370289 29.713742-31.007201C748.539274 525.727908 732.24824 509.084856 716.808596 509.084856L716.808596 509.084856 716.808596 509.084856zM716.808596 509.084856"  horiz-adv-x="1024" />

    
    <glyph glyph-name="jiazai1" unicode="&#58899;" d="M1009.1026963 380.68598203c0-1.12676611-0.13256073-2.18725186-0.19884108-3.31401798A497.02315986 497.02315986 0 0 0 14.8973037 384c0 0.72908396 0.06628035 1.45816791 0.06628035 2.18725186 0 0.39768215-0.06628035 0.72908396-0.06628035 1.12676611 0 1.12676611 0.13256073 2.18725186 0.19884108 3.31401798A497.02315986 497.02315986 0 0 0 1009.1026963 384c0-0.72908396-0.06628035-1.45816791-0.06628035-2.18725186 0-0.39768215 0.06628035-0.72908396 0.06628035-1.12676611zM14.96358405 384h0.13256073a5.01742321 5.01742321 0 0 0-0.06628035 0.99420539c0-0.33140179-0.06628035-0.66280359-0.06628038-0.99420539z m898.03259097-99.42053925a96.10652128 96.10652128 0 0 0-96.10652129 96.10652128c0 1.12676611 0.13256073 2.18725186 0.19884108 3.31401797h-0.26512144a400.87687037 400.87687037 0 0 1-801.39582679 13.32235227A96.10652128 96.10652128 0 0 0 207.11034627 387.31401797c0-1.12676611-0.13256073-2.18725186-0.19884108-3.31401797h0.26512144a400.87687037 400.87687037 0 0 1 801.39582679-13.32235227A96.10652128 96.10652128 0 0 0 912.99617502 284.57946074999995z m96.04024093 99.42053925h-0.13256073a5.01742321 5.01742321 0 0 0 0.06628035-0.99420539c0 0.33140179 0.06628035 0.66280359 0.06628038 0.99420539z"  horiz-adv-x="1024" />

    
    <glyph glyph-name="erweima" unicode="&#69905;" d="M577.93206077 397.18615463l1e-8-26.37230926-131.86412156 0L446.06793923 397.18615463z"  horiz-adv-x="1024" />

    
    <glyph glyph-name="gengduo" unicode="&#58939;" d="M803.229358 299.44954099999995C756.534018 299.44954099999995 718.678899 337.304661 718.678899 384 718.678899 430.695339 756.534018 468.550459 803.229358 468.550459 849.924697 468.550459 887.779817 430.695339 887.779817 384 887.779817 337.304661 849.924697 299.44954099999995 803.229358 299.44954099999995ZM803.229358 440.366972C772.096 440.366972 746.862385 415.128661 746.862385 384 746.862385 352.87133900000003 772.096 327.63302799999997 803.229358 327.63302799999997 834.358018 327.63302799999997 859.59633 352.87133900000003 859.59633 384 859.59633 415.128661 834.358018 440.366972 803.229358 440.366972ZM516.697248 299.44954099999995C469.997211 299.44954099999995 432.146789 337.304661 432.146789 384 432.146789 430.695339 469.997211 468.550459 516.697248 468.550459 563.392587 468.550459 601.247706 430.695339 601.247706 384 601.247706 337.304661 563.392587 299.44954099999995 516.697248 299.44954099999995ZM516.697248 440.366972C485.56389 440.366972 460.330275 415.128661 460.330275 384 460.330275 352.87133900000003 485.56389 327.63302799999997 516.697248 327.63302799999997 547.825908 327.63302799999997 573.06422 352.87133900000003 573.06422 384 573.06422 415.128661 547.825908 440.366972 516.697248 440.366972ZM225.46789 299.44954099999995C178.77255 299.44954099999995 140.917431 337.304661 140.917431 384 140.917431 430.695339 178.77255 468.550459 225.46789 468.550459 272.163229 468.550459 310.018349 430.695339 310.018349 384 310.018349 337.304661 272.163229 299.44954099999995 225.46789 299.44954099999995ZM225.46789 440.366972C194.334532 440.366972 169.100917 415.128661 169.100917 384 169.100917 352.87133900000003 194.334532 327.63302799999997 225.46789 327.63302799999997 256.59655 327.63302799999997 281.834862 352.87133900000003 281.834862 384 281.834862 415.128661 256.59655 440.366972 225.46789 440.366972Z"  horiz-adv-x="1024" />

    
    <glyph glyph-name="shouji" unicode="&#58946;" d="M525.99313702 354.34787638L498.00686298 354.34787638C494.32666797 354.34787638 491.34346443 357.33107992 491.34346443 361.01127494L491.34346443 406.98872506C491.34346443 410.66892008 494.32666797 413.65212362 498.00686298 413.65212362L525.99313702 413.65212362C529.67299887 413.65212362 532.65653557 410.66892008 532.65653557 406.98872506L532.65653557 361.01127494C532.65653557 357.33107992 529.67299887 354.34787638 525.99313702 354.34787638ZM530.65751603 406.98872506C530.65751603 409.56479494 528.56920688 411.65310407 525.99313702 411.65310407L498.00686298 411.65310407C495.43079312 411.65310407 493.34248397 409.56479494 493.34248397 406.98872506L493.34248397 403.99019566 530.65751603 403.99019566 530.65751603 406.98872506ZM530.65751603 401.99117613L493.34248397 401.99117613 493.34248397 368.00784343 530.65751603 368.00784343 530.65751603 401.99117613ZM530.65751603 366.00882387L493.34248397 366.00882387 493.34248397 361.01127494C493.34248397 358.43520506000004 495.43079312 356.34689592999996 498.00686298 356.34689592999996L525.99313702 356.34689592999996C528.56920688 356.34689592999996 530.65751603 358.43520506000004 530.65751603 361.01127494L530.65751603 366.00882387ZM512 359.01225537000005C510.52805527 359.01225537000005 509.33464054 360.20567001999996 509.33464054 361.67761482000003 509.33464054 363.14955954000004 510.52805527 364.34297420999997 512 364.34297420999997 513.47194473 364.34297420999997 514.66535946 363.14955954000004 514.66535946 361.67761482000003 514.66535946 360.20567001999996 513.47194473 359.01225537000005 512 359.01225537000005Z"  horiz-adv-x="1024" />

    
    <glyph glyph-name="shukujihuo" unicode="&#58948;" d="M536.60167734 368.82024168L536.60167734 420.64079601C536.60167734 421.50813608 537.30465723 422.21111594 538.17199714 422.21111594L542.35951673 422.21111594 542.35951673 422.21111594 547.59391617 422.21111594C553.37531037 422.21111594 558.06271504 417.52423468 558.06271504 411.74231698L558.06271504 368.82024168 536.60167734 368.82024168ZM518.28127927 340.03104477L505.71872073 340.03104477C499.936803 340.03104477 495.24992175 344.71792603999995 495.24992175 350.49984363L495.24992175 357.82800285999997 528.75007825 357.82800285999997 528.75007825 350.49984363C528.75007825 344.71792603999995 524.06267346 340.03104477 518.28127927 340.03104477ZM495.24992175 417.50015637C495.24992175 423.28207396 499.936803 427.96895523 505.71872073 427.96895523L518.28127927 427.96895523C524.06267346 427.96895523 528.75007825 423.28207396 528.75007825 417.50015637L528.75007825 360.96864249 495.24992175 360.96864249 495.24992175 417.50015637ZM485.82800286 342.64824443L478.49984363 342.64824443C478.49932021 342.64824443 478.49932021 342.64824443 478.49932021 342.64824443L476.40608383 342.64824443C470.62416622 342.64824443 465.93728496 347.33564908999995 465.93728496 353.11704328999997L465.93728496 365.67960194 487.39832266 365.67960194 487.39832266 344.21856425C487.39832266 343.35122431 486.69534277 342.64824443 485.82800286 342.64824443ZM465.93728496 411.74231698C465.93728496 417.52423468 470.62416622 422.21111594 476.40608383 422.21111594L481.64048327 422.21111594 481.64048327 422.21111594 485.82800286 422.21111594C486.69534277 422.21111594 487.39832266 421.50813608 487.39832266 420.64079601L487.39832266 368.82024168 465.93728496 368.82024168 465.93728496 411.74231698ZM558.06271504 365.67960194L558.06271504 353.11704328999997C558.06271504 347.33564908999995 553.37531037 342.64824443 547.59391617 342.64824443L545.50067979 342.64824443C545.50067979 342.64824443 545.50015637 342.64824443 545.50015637 342.64824443L538.17199714 342.64824443C537.30465723 342.64824443 536.60167734 343.35122431 536.60167734 344.21856425L536.60167734 365.67960194 558.06271504 365.67960194Z"  horiz-adv-x="1024" />

    
    <glyph glyph-name="banjiguanli" unicode="&#58950;" d="M539.67197478 357.84393949C539.67197478 357.21581498 539.16287933 356.70671946000004 538.53513381 356.70671946000004 537.90700933 356.70671946000004 537.3979138 357.21581498 537.3979138 357.84393949 537.3979138 357.97775242 537.42482803 358.10398379000003 537.46728428 358.22301284L537.3979138 358.22301284 537.3979138 371.11150641999996C537.3979138 374.04250146000004 535.02188216 376.41853318999995 532.09050798 376.41853318999995L504.79722744 376.41853318999995C501.86661143 376.41853318999995 499.49057978 374.04250146000004 499.49057978 371.11150641999996L499.49057978 358.22301284 499.42083027 358.22301284C499.4632865 358.10398379000003 499.49057978 357.97775242 499.49057978 357.84393949 499.49057978 357.21581498 498.98110521 356.70671946000004 498.35335977 356.70671946000004 497.7252352 356.70671946000004 497.21613969 357.21581498 497.21613969 357.84393949 497.21613969 357.97775242 497.24343297 358.10398379000003 497.28551014 358.22301284L497.21613969 358.22301284 497.21613969 371.11150641999996C497.21613969 375.29875054 500.61036238 378.69297323 504.79722744 378.69297323L532.09050798 378.69297323C536.27775208 378.69297323 539.67197478 375.29875054 539.67197478 371.11150641999996L539.67197478 358.22301284 539.60260437 358.22301284C539.64468148 358.10398379000003 539.67197478 357.97775242 539.67197478 357.84393949ZM518.4442468 382.86278000000004C511.11675913 382.86278000000004 505.17667985 388.8028592 505.17667985 396.13034693 505.17667985 403.45783459 511.11675913 409.3979138 518.4442468 409.3979138 525.77173445 409.3979138 531.71181374 403.45783459 531.71181374 396.13034693 531.71181374 388.8028592 525.77173445 382.86278000000004 518.4442468 382.86278000000004ZM518.4442468 407.12347377C512.37262906 407.12347377 507.45111995 402.20158554 507.45111995 396.13034693 507.45111995 390.05910826 512.37262906 385.13722 518.4442468 385.13722 524.5154854 385.13722 529.43737364 390.05910826 529.43737364 396.13034693 529.43737364 402.20158554 524.5154854 407.12347377 518.4442468 407.12347377ZM499.86965307 388.16980677C500.60998332 388.16980677 501.32036674 388.28428694 501.99928712 388.47533984 502.20701935 388.74865174 502.53226421 388.92795343 502.90223982 388.92795343 502.99397557 388.92795343 503.08229967 388.91430678 503.16797026 388.89345779 503.17555173 388.89686943 503.18351225 388.89952298 503.19109372 388.9029346L503.19147278 388.88625535C503.678582 388.75774951 504.03945983 388.31840351 504.03945983 387.79073341 504.03945983 387.27519364 503.69412407 386.84494541 503.22369402 386.70544644L503.22748477 386.47042094C502.17403992 386.1042361 501.04743399 385.89536674 499.86965307 385.89536674 494.21691147 385.89536674 489.63467287 390.47798431 489.63467287 396.13034693 489.63467287 401.78308853 494.21691147 406.36532713 499.86965307 406.36532713 500.84804142 406.36532713 501.79155491 406.22127926 502.68730527 405.9646466 502.75705472 405.97791419 502.82869959 405.98625376 502.90223982 405.98625376 503.5303643 405.98625376 504.03945983 405.47715824 504.03945983 404.84903374 504.03945983 404.24403272 503.56561822 403.75426989 502.97009392 403.71863704L502.9738847 403.46276252C502.01975705 403.86685472 500.97086117 404.09088702 499.86965307 404.09088702 495.47316044 404.09088702 491.90911298 400.52683956 491.90911298 396.13034693 491.90911298 391.73385431 495.47316044 388.16980677 499.86965307 388.16980677ZM496.07891966 381.34648660000005C496.70704424 381.34648660000005 497.21613969 380.83739108 497.21613969 380.20926658999997 497.21613969 379.58114203 496.70704424 379.07204657 496.07891966 379.07204657L494.18355299 379.07204657C494.18355299 379.07204657 494.18317395 379.07204657 494.18317395 379.07204657L493.42540629 379.07204657C490.49441122 379.07204657 488.11837949 376.69601486 488.11837949 373.76501979L488.11837949 360.11837949000005 488.04863006 360.11837949000005C488.09108629 359.99935053 488.11837949 359.87311907000003 488.11837949 359.73930622 488.11837949 359.11118165000005 487.60928404 358.60208620000003 486.98115948 358.60208620000003 486.35303501 358.60208620000003 485.84393949 359.11118165000005 485.84393949 359.73930622 485.84393949 359.87311907000003 485.87123277 359.99935053 485.91330995 360.11837949000005L485.84393949 360.11837949000005 485.84393949 373.76501979C485.84393949 377.95226391000006 489.23816217 381.34648660000005 493.42540629 381.34648660000005L496.07891966 381.34648660000005ZM510.57885401 369.64145996L514.69142073 365.52851425999995C516.76419373 363.45612034 520.12429985 363.45612034 522.19669378 365.52851425999995L526.04125559 369.37307607 526.0905351 369.32379656C526.14474265 369.43827672 526.21487121 369.54669163000005 526.30926044 369.64145996 526.75353443 370.08535486000005 527.47339468 370.08535486000005 527.91766861 369.64145996 528.36194262 369.19718603 528.36194262 368.47694666999996 527.91766861 368.03305178000005 527.82327941 367.93866258 527.71448535 367.86853400999996 527.60038425 367.81432646999997L527.64966378 367.76504693000004 523.80510196 363.92048513C520.84416011 360.95954326000003 516.04395445 360.95954326000003 513.08339161 363.92048513L508.97044582 368.03305178000005C508.52655095 368.47694666999996 508.52655095 369.19718603 508.97044582 369.64145996 509.41471985 370.08535486000005 510.13458009 370.08535486000005 510.57885401 369.64145996Z"  horiz-adv-x="1024" />

    
    <glyph glyph-name="zanting" unicode="&#58957;" d="M524.88152989 359.61710422C522.34064814 359.61710422 520.28098351 361.67676883 520.28098351 364.21765059999996L520.28098351 403.32229484C520.28098351 405.86317658 522.34064814 407.92284122 524.88152989 407.92284122 527.42195162 407.92284122 529.48207626 405.86317658 529.48207626 403.32229484L529.48207626 364.21765059999996C529.48207626 361.67676883 527.42195162 359.61710422 524.88152989 359.61710422ZM499.57852477 359.61710422C497.03764302 359.61710422 494.9779784 361.67676883 494.9779784 364.21765059999996L494.9779784 403.32229484C494.9779784 405.86317658 497.03764302 407.92284122 499.57852477 407.92284122 502.11940654 407.92284122 504.17907115 405.86317658 504.17907115 403.32229484L504.17907115 364.21765059999996C504.17907115 361.67676883 502.11940654 359.61710422 499.57852477 359.61710422Z"  horiz-adv-x="1024" />

    
    <glyph glyph-name="saomiao" unicode="&#58967;" d="M540.89718192 346.47679361999997L535.29026605 346.47679361999997 524.93903668 346.47679361999997C524.22437058 346.47679361999997 523.64513303 347.05603111999994 523.64513303 347.77069729000004 523.64513303 348.48536335999995 524.22437058 349.06460093 524.93903668 349.06460093L535.29026605 349.06460093 535.29026605 349.06460093 540.89718192 349.06460093C544.23200305 349.06460093 546.93539907 351.76799695 546.93539907 355.10281808L546.93539907 362.00363762999996 546.93539907 371.06096332000004C546.93539907 371.77562942 547.51463664 372.35486697 548.22930271 372.35486697 548.94396888 372.35486697 549.52320638 371.77562942 549.52320638 371.06096332000004L549.52320638 362.00363762999996 549.52320638 355.10281808C549.52320638 350.33866478000004 545.66133522 346.47679361999997 540.89718192 346.47679361999997ZM548.22930271 395.64513303C547.51463664 395.64513303 546.93539907 396.22437058 546.93539907 396.93903668L546.93539907 396.93903668 546.93539907 396.93903668 546.93539907 412.89718192C546.93539907 416.23200305 544.23200305 418.93539907 540.89718192 418.93539907L535.29026605 418.93539907 524.93903668 418.93539907C524.22437058 418.93539907 523.64513303 419.51463664 523.64513303 420.22930271 523.64513303 420.94396888 524.22437058 421.52320638 524.93903668 421.52320638L535.29026605 421.52320638 540.89718192 421.52320638C545.66133522 421.52320638 549.52320638 417.66133522 549.52320638 412.89718192L549.52320638 405.99636237 549.52320638 396.93903668 549.52320638 396.93903668C549.52320638 396.22437058 548.94396888 395.64513303 548.22930271 395.64513303ZM499.06096332 418.93539907L488.70973395 418.93539907 483.10281808 418.93539907C479.76799695 418.93539907 477.06460093 416.23200305 477.06460093 412.89718192L477.06460093 396.93903668 477.06460093 396.93903668 477.06460093 396.93903668C477.06460093 396.22437058 476.48536336 395.64513303 475.77069729 395.64513303 475.05603112 395.64513303 474.47679362 396.22437058 474.47679362 396.93903668L474.47679362 405.99636237 474.47679362 405.99636237 474.47679362 412.89718192C474.47679362 417.66133522 478.33866478 421.52320638 483.10281808 421.52320638L488.70973395 421.52320638 499.06096332 421.52320638C499.77562942 421.52320638 500.35486697 420.94396888 500.35486697 420.22930271 500.35486697 419.51463664 499.77562942 418.93539907 499.06096332 418.93539907ZM547.79800155 385.29390365C548.51266764 385.29390365 549.09190523 384.71466608 549.09190523 384 549.09190523 383.28533391999997 548.51266764 382.70609635000005 547.79800155 382.70609635000005L475.33939603 382.70609635000005C474.62472995 382.70609635000005 474.04549237 383.28533391999997 474.04549237 384 474.04549237 384.71466608 474.62472995 385.29390365 475.33939603 385.29390365L547.79800155 385.29390365ZM475.77069729 372.35486697C476.48536336 372.35486697 477.06460093 371.77562942 477.06460093 371.06096332000004L477.06460093 371.06096332000004 477.06460093 355.10281808C477.06460093 351.76799695 479.76799695 349.06460093 483.10281808 349.06460093L488.70973395 349.06460093 488.70973395 349.06460093 499.06096332 349.06460093C499.77562942 349.06460093 500.35486697 348.48536335999995 500.35486697 347.77069729000004 500.35486697 347.05603111999994 499.77562942 346.47679361999997 499.06096332 346.47679361999997L488.70973395 346.47679361999997 483.10281808 346.47679361999997C478.33866478 346.47679361999997 474.47679362 350.33866478000004 474.47679362 355.10281808L474.47679362 362.00363762999996 474.47679362 362.00363762999996 474.47679362 371.06096332000004C474.47679362 371.77562942 475.05603112 372.35486697 475.77069729 372.35486697Z"  horiz-adv-x="1024" />

    
    <glyph glyph-name="shiliangzhinengduixiang" unicode="&#58977;" d="M503.01431735 375.63578327000005c-2.207085 0-3.99204797-1.78698045-3.99204797-3.98828805 0-2.20680996 1.78468784-3.99406547 3.99204798-3.99406547 1.69013909 0 3.11909984 1.05911101 3.69510438 2.54089438l-2.89882239 1.45317115 2.89882238 1.44565123C506.13341719 374.58290825999995 504.70445644 375.63578327000005 503.01431735 375.63578327000005L503.01431735 375.63578327000005 503.01431735 375.63578327000005zM503.01431735 375.63578327000005M521.62638933 367.63728949999995c1.68582888 0 3.11909984 1.05691008 3.69473754 2.54447087l-2.90267402 1.44757707 2.90267402 1.44941117c-0.57563769 1.48554331-2.00890866 2.54089438-3.69473755 2.54089439-2.20736016 0-3.9924148-1.78698045-3.99241481-3.99030556C517.6339745 369.42399480999995 519.41866233 367.63728949999995 521.62638933 367.63728949999995L521.62638933 367.63728949999995 521.62638933 367.63728949999995zM521.62638933 367.63728949999995M539.68382417 377.01421408c0.01540657 0.62726808 0.01724073 1.26526578 0.0043102 1.90518933 0.17084801 8.65373216-2.40480289 15.94865852-7.44899225 21.09785108-2.40617848 2.45524111-5.33223749 4.33988832-8.6851873 5.62377041-0.52052252 4.67452302-5.59726738 8.35486273-11.76384484 8.35486275-6.16648576 0-11.24286385-3.6803397-11.76338629-8.35486275-3.35304152-1.2838821-6.27864199-3.1685293-8.68445363-5.62377041C486.29661346 394.868062 483.72022889 387.58762512 483.89181058 378.95975398999997c-0.01503975-0.81535682-0.00999592-1.58064226 0.01540658-2.32887038-1.3074505-1.31597912-2.33162159-3.30352035-1.58330172-6.09275419 0.55628777-2.07236911 2.08951811-3.62540793 3.97086388-4.30494838 0.95612535-0.58948526 2.07915536-0.93283207 3.28068561-0.94071879C491.97412347 354.80479620999995 500.68187046 347.68447779999997 512.05312243 347.68447779999997c11.35043483 0 20.06038265 7.13801761 22.44537707 17.63210307 0.07345639-0.01614026 0.14975571-0.02485231 0.22779734-0.0248523 1.498107 0 2.87580422 0.52299857 3.96270212 1.39420425 1.42070726 0.80600288 2.53190722 2.15472101 2.98722683 3.85237996C542.50167029 373.61284362000004 541.17221038 375.71391667 539.68382417 377.01421408L539.68382417 377.01421408zM511.79011003 411.86556045c4.59354672 0 8.4495032-2.33244697 9.43424078-5.44971266-2.86654192 0.81783286-5.99958102 1.23729552-9.3529894 1.23729551l-0.16296131 0c-3.35304152 0-6.48608063-0.41946265-9.35262255-1.23729551C503.34097363 409.53311347 507.1969301 411.86556045 511.79011003 411.86556045L511.79011003 411.86556045zM511.87145311 405.46595842c7.50062261 0 14.828288-2.02431522 19.32884499-7.35545225 4.05477483-4.80309465 6.55018307-12.51179785 6.39180705-20.29056443 0.00146731-0.06089269 0.00210921-0.12022638 0.00284287-0.18020202-2.25147067 0-2.63801089-1.99817904-2.61756049-2.08062266-0.00898718-0.04062572-0.01751579-0.08170994-0.02476059-0.12288583-0.0552069-0.31115798-0.11747517-1.13091671-0.1794684-2.16068186-0.03833302-0.03081314-0.07345639-0.06520288-0.10674565-0.10124327-3.24877192 3.20466141-8.77084058 5.20320729-12.88540754 6.07514667-2.15325371 0.45623665-4.37932179 0.92778825-6.47819394 1.7234283-7.45266046 2.82701664-11.56493482 9.5770268-11.60629414 9.64516423-0.30162056 0.5040154-0.95465805 0.66844408-1.46041589 0.36746541-0.50410712-0.30162056-0.66917768-0.95502489-0.36829075-1.4597739 0.18056886-0.30226253 4.51403778-7.44770837 12.67906937-10.54498223 2.25257112-0.85433182 4.56053264-1.34330747 6.79228651-1.81568441 4.47708028-0.94860549 8.7063713-1.84466348 11.58786133-5.58488712 0.03007955-0.03906671 0.06336874-0.07501538 0.09775847-0.10903827-0.00431019-0.18863899-0.00431019-0.18900577-0.00431019-0.18900578 0-1.39420426-0.10527836-2.74218877-0.30840681-4.03735065-3.7044584-5.9186048-9.85049368-9.7967541-17.46428138-10.63228616-0.56747586 0.74905346-1.72342829 1.26526578-3.06609385 1.26526578-1.90436399 0-3.44942434-1.03059047-3.44942435-2.299066 0-1.27113499 1.54506043-2.29961624 3.44942435-2.29961625 1.70664611 0 3.11268044 0.83058005 3.38633073 1.91665255 2.45597473 0.28227063 4.79740886 0.8692799 6.99220533 1.75552532 3.13551518 1.26654966 5.89852117 3.11084629 8.2116182 5.48281853 0.37039996 0.37920377 0.72576019 0.77179655 1.06965718 1.17502725-2.75695337-8.39668063-10.12671174-13.79421263-19.74794078-13.79512977l-1e-8 1e-8c-0.01724073 0.00091705-0.06446919 0.00091705-0.08170991 0.00091703-12.34553512 0-20.96799558 8.82778994-20.96799559 21.48750933l-0.02292644 1.20455651c-0.01540657 0.51621233 0.06483605 1.96644888 0.15076447 3.35707659 6.73001825 2.38077591 9.5244793 9.22166658 9.64672323 9.52906464 0.2170678 0.54592502-0.04842072 1.16383915-0.59434571 1.3823742-0.54812592 0.21926873-1.16493961-0.04796216-1.38420832-0.59287842-0.02723664-0.06694525-4.01213158-7.59709717-9.9923627-9.58326279-0.17231529 0.11985959-1.35871405 1.33496228-2.95567998 0.91274845 0.00110047 0.08583672 0.00210921 0.17066457 0.0035765 0.25806029-0.15727559 7.73685696 1.95058372 15.18759156 6.02608407 19.97353721 4.33145134 5.08655744 12.2867517 7.72227569 19.78517334 7.7222757l0.07840854-0.0014673 0 0M512.09393158 349.81397966"  horiz-adv-x="1024" />

    
    <glyph glyph-name="jiazaigengduo" unicode="&#58933;" d="M497.60887694-100.55085322000002c7.90393287-11.03567986 20.85345811-11.03567986 28.78224612 0l287.37506873 401.31100672c7.90393287 11.03567986 3.28087779 20.10780406-10.33973609 20.10780407l-146.76957108 0c-13.59575874 0-26.3464429 11.01082473-28.33485369 24.45745266l-8.0033534 54.63158632c-1.98841078 13.44662794-14.73909494 24.45745266-28.33485369 24.45745266l-55.25296469 0c-13.62061388 0-35.84110441 0-49.4617183 0l-55.22810954 0c-13.59575874 0-26.3464429-11.01082473-28.30999856-24.45745266l-8.05306368-54.63158632c-1.98841078-13.44662794-14.71423981-24.45745266-28.33485369-24.45745266l-146.76957108 0c-13.59575874 0-18.24366896-9.04726907-10.33973609-20.10780407L497.60887694-100.55085322000002 497.60887694-100.55085322000002zM581.56952235 495.27643856c13.59575874 0 23.11527538 11.01082473 21.12686458 24.45745266l-5.66697073 38.30176275c-1.96355565 13.47148307-14.71423981 24.45745266-28.30999855 24.45745266l-31.9885585 0c-13.62061388 0-35.84110441 0-49.4617183 0l-32.01341363 0c-13.59575874 0-26.3464429-11.01082473-28.33485369-24.45745266l-5.64211561-38.30176275c-1.98841078-13.47148307 7.50625072-24.45745266 21.1268646-24.45745266l44.83866321 0c13.59575874 0 35.84110441 0 49.46171827 0L581.56952235 495.27643856 581.56952235 495.27643856zM535.88578455 811.43375341c13.12351118 0 22.2702008 11.01082473 20.28179001 24.45745266L553.75662649 852.39501558c-1.98841078 13.4217728-12.17901605 24.43259753-22.66788295 24.43259753s-27.66376505 0-38.15263195 0S472.2317843 865.81678838 470.24337351 852.37016045L467.83242544 835.86635093c-1.98841078-13.44662794 7.15827883-24.43259753 20.25693487-24.43259752C501.23772662 811.43375341 522.76227338 811.43375341 535.88578455 811.43375341L535.88578455 811.43375341zM558.30511616 653.35509599c13.62061388 0 23.11527538 11.01082473 21.12686459 24.45745265l-5.6421156 38.30176275c-1.98841078 13.47148307-14.73909494 24.45745266-28.33485368 24.45745266l-8.74900747 0c-13.62061388 0-35.84110441 0-49.46171827 0l-8.74900746 0c-13.59575874 0-26.3464429-11.01082473-28.33485368-24.45745266l-5.64211561-38.30176275c-1.98841078-13.47148307 7.50625072-24.45745266 21.12686459-24.45745265l21.59911216 0c13.59575874 0 35.84110441 0 49.46171827 0L558.30511616 653.35509599 558.30511616 653.35509599z"  horiz-adv-x="1024" />

    
    <glyph glyph-name="jiazaigengduo-copy" unicode="&#58880;" d="M526.39122015 868.55133867c-7.90436978 11.03553422-20.85379792 11.03553422-28.7824403 0l-287.37536-401.31090964c-7.90436978-11.03553422-3.28044089-20.1074157 10.34012445-20.1074157h146.76908562c13.59629275 0 26.34668563-11.01126163 28.33461097-24.4570643l8.00388741-54.63153778c1.98792533-13.4470163 14.73953185-24.4570643 28.33461095-24.45706428h55.25170253c13.62056533 0 35.84091022 0 49.46147555 0h55.22864356c13.59629275 0 26.34668563 11.01126163 28.31033836 24.45706428l8.05364623 54.63153778c1.98792533 13.4470163 14.71404563 24.45827792 28.33461097 24.4570643h146.76908563c13.59629275 0 18.24328059 9.04760889 10.34012444 20.1074157l-287.37536 401.31090964zM442.42989511 272.72351289000005c-13.59629275 0-23.11478992-11.01126163-21.12686459-24.4570643l5.66643673-38.30215111c1.96365275-13.47128889 14.71404563-24.45827792 28.31033838-24.4570643h31.98884978c13.62056533 0 35.84091022 0 49.46147556 0h32.01312236c13.59629275 0 26.34668563 11.01126163 28.33461097 24.4570643l5.64216415 38.30215111c1.98792533 13.47128889-7.50629925 24.4570643-21.1268646 24.4570643h-44.8387603c-13.59629275 0-35.84091022 0-49.46147555 0h-44.86303289zM488.11455525-43.434287410000024c-13.12297718 0-22.2701037-11.01126163-20.28217836-24.45706429l2.41148208-16.50414933c1.98792533-13.42153008 12.17877333-24.4327917 22.66817421-24.43279172s27.66347378 0 38.15287467 0 20.70452148 11.01126163 22.69244682 24.4570643l2.41148208 16.50414934c1.98792533 13.4470163-7.15798755 24.4327917-20.25669216 24.4327917-13.14846341 0-34.67339852 0-47.7963757 0v0zM465.69517511 114.64461274999996c-13.62056533 0-23.11478992-11.01126163-21.12686459-24.4570643l5.64216415-38.30215112c1.98792533-13.47128889 14.73953185-24.4570643 28.33461096-24.4570643h8.75026962c13.62056533 0 35.84091022 0 49.46147557 0h8.75026963c13.59629275 0 26.34668563 11.01126163 28.33461096 24.4570643l5.64216414 38.30215112c1.98792533 13.47128889-7.50629925 24.4570643-21.12686458 24.4570643h-21.59775289c-13.59629275 0-35.84091022 0-49.46147556 0h-21.59775289z"  horiz-adv-x="1024" />

    
    <glyph glyph-name="pifushezhi" unicode="&#58906;" d="M288.87131265 805.48509074h81.8023908c6.03565565-3.57913941 14.83851549-4.93788638 20.33150027-9.19639988 7.47725346-5.74567826 12.85010469-13.0323761 18.69934683-20.50134289 7.89979075-10.0663296 22.80458619-19.82197002 35.34814383-25.0705468 14.66038742-6.05222533 30.22384394-9.50708907 48.20239185-12.84181925 5.67111285-0.36868491 11.34222692-0.61723626 17.00919645-0.98591994 7.60152914-1.17233345 18.46322305 0.67937409 24.73085914 1.97598321 33.84440817 6.79373725 50.79975344 12.34885988 73.05752667 30.00843196 8.68686962 6.97600743 13.33477983 18.46322305 22.37790678 25.1285413 5.0704475 2.77548965 10.19474739 5.6793983 15.32319062 8.52116912 4.40350098 1.72743187 7.5393913 0.74151193 11.15995553 2.96190317h24.06805474c23.22298137 0 57.73433605 3.14831667 73.05752667-4.87574854 10.79541396-5.80367397 19.06388841-14.94207814 27.51049212-23.15255808 11.76476421-11.42093445 23.5253851-22.84601102 35.22801027-34.26694546 37.9413633-36.98444061 75.94900654-73.90674337 113.83237533-110.89118397 11.9470344-12.77968142 25.76234723-23.83193217 37.6472438-36.67789476 9.76806798-10.31073883 20.14508677-18.02825819 25.51379588-32.966193 0.18227139-2.41094807 0.24440923-4.81775404 0.30240495-7.22870211 2.71335182-16.30082631-4.70590593-28.15258229-12.1873015-37.60167686-31.78971743-30.80793961-63.58357697-61.67801705-95.43129013-92.42796092-11.58249282-12.90810042-26.06060885-30.87421955-46.51224269-34.63563037-27.8750337-5.12844322-43.67461398 12.0381707-56.70284674 24.69357644-4.22537292 4.19637567-7.78379932 9.5692269-13.272642 12.59741123-0.2402659-0.24855135-0.66280319-0.4971027-1.02734597-0.68351621v-330.32888502c-0.05799572-30.99435312-0.17812806-62.1129819-0.35625734-93.10733501-2.23282002-10.74984581-9.23368258-21.86009107-16.89320622-27.72590289-19.12188413-14.44911877-52.84615873-11.23452094-86.68642478-11.23452093H341.12094815c-23.58752293 0-48.38466204-1.78956971-62.49823649 7.34055022-7.90393287 4.94202971-16.59080249 14.20470955-20.09123438 23.40110943-3.98096369 10.62142802-3.01575677 25.4433726-3.01575555 39.58180218v62.36153325 330.0844758h-1.38774543c-14.05557874-12.34885988-24.85513482-27.66376505-43.73675183-35.38128442-16.04398953-6.60318041-34.80547419 0.30654706-44.8179514 7.22455879-6.99672045 4.93788638-12.30743385 11.30080089-18.33894617 17.16661271a28301.94134828 28301.94134828 0 0 1-43.06980651 41.24709622 2171.29072503 2171.29072503 0 0 0-20.389496 20.55933982c-8.38446589 7.03814527-15.68359007 15.07049714-23.40525154 22.72173534-9.34967281 9.13840416-19.54442141 16.23868848-25.15339643 29.08464986-2.4150902 5.43498908-7.17899184 15.24862521-5.43084696 24.38703058 4.10523936 21.66953543 17.55601063 33.094612 31.24704657 45.25705717 8.14419877 7.16242094 15.32319061 15.49717655 23.40525277 22.71759322l134.82667879 131.33453236c8.14419877 7.89979075 16.28839875 15.80372363 24.43259753 23.76979434 11.82275872 11.47893017 22.37790678 25.68363971 45.18249177 26.4210083-0.00828545 0.43496485-0.00828545 0.80364976-0.00828424 1.23447129z"  horiz-adv-x="1024" />

    
    <glyph glyph-name="jiazai3" unicode="&#58923;" d="M259.79392 165.09439999999995a333.60384 333.60384 0 0 0-76.01152 183.68512H28.48256c6.91712-112.20992 51.64032-214.17472 121.56416-293.42208l109.7472 109.73696zM183.7824 410.05056a333.37856 333.37856 0 0 0 76.01152 183.6032L150.05184 703.45216C80.12288 624.23040001 35.42016 522.2604799999999 28.47232 410.05056h155.31008zM303.09376 636.99968A333.44 333.44 0 0 0 486.7584 712.97024V868.26496C374.51264 861.39904 272.5376 816.6502399999999 193.34656 746.752l109.7472-109.75232zM547.98848 868.26496v-155.29984a333.3376 333.3376 0 0 0 183.66464-75.97056l109.75744 109.73696c-79.24224 69.91871999-181.16608001 114.64704001-293.42208 121.53344M774.93248 593.6537599999999a333.29664 333.29664 0 0 0 76.01664-183.6032h155.32032c-6.90688 112.20992-51.6352 214.17983999-121.55392 293.36064l-109.78304-109.75744zM486.7584 45.823999999999955a333.60896 333.60896 0 0 0-183.66464 75.97056l-109.7472-109.73184c79.21664-69.92384 181.16608001-114.6112 293.41184-121.53856V45.823999999999955zM850.94400001 348.77952000000005a333.5424 333.5424 0 0 0-75.99104001-183.68512l109.75744-109.71648001c69.91871999 79.22688 114.60096 181.19168 121.57952 293.40160001H850.94400001zM731.65312 121.79456000000005a333.59872 333.59872 0 0 0-183.66464-75.97056v-155.29984c112.2304 6.93248 214.17983999 51.61472 293.42208 121.51296l-109.75744 109.75744z"  horiz-adv-x="1024" />

    
    <glyph glyph-name="jiazai5" unicode="&#58912;" d="M255.8993189 14.738861110000016c10.33973609 17.47813081 32.54365651 23.81453317 50.9033161 13.54770549 17.47813081-10.34636412 23.80790513-33.13355172 12.95781029-50.61168251a36.52047809 36.52047809 0 0 0-50.32004895-13.54770549c-18.05476993 9.83600535-23.88081354 33.13355172-13.54107744 50.61168251z m218.5992537-79.00618852v25.99515699c0 20.67947216 16.97440006 37.14351346 37.64724419 37.14351347 20.10283303 0 37.06397703-16.45741327 37.06397703-37.14351347v-25.99515699c0-20.60656378-16.90149168-37.06397703-37.06397703-37.06397704-20.97773378 0-37.64724419 16.89486365-37.64724419 37.06397704z m228.93898977 41.87593113l-27.59914171 48.27198583c-10.63136967 17.47813081-4.22205889 40.56358002 13.25607189 50.9033161 17.98848957 10.12101089 40.77567716 4.00333371 51.40704684-13.75980262l27.59914171-48.27861387a36.76571542 36.76571542 0 0 0-13.75980264-50.89668807c-17.5510392-10.34636412-40.33822681-4.52032051-50.90331609 13.75980263z m177.60485133 149.9990816l-73.69050369 42.95630099c-17.69685599 10.34636412-23.81453317 33.4251853-13.75980265 50.90331611 10.12101089 18.06139796 33.12692368 23.59580798 50.90331611 13.75980264l74.19423442-42.956301c17.76976438-10.34636412 23.81453317-33.4251853 13.24944386-50.9033161-9.82937731-17.76313634-32.9081985-23.80790513-50.89668805-13.75980264z m78.93328012 219.18252086h-115.56643482c-20.67947216 0-37.06397703 16.68276649-37.06397705 37.35561061a36.98444061 36.98444061 0 0 0 37.06397705 37.06397703h115.56643482c20.67947216 0 37.06397703-16.67613845 37.06397704-37.35561061a36.98444061 36.98444061 0 0 0-37.06397704-37.06397703z m-41.35894432 229.23062335L792.49848144 503.35104336c-17.47813081-10.05473054-40.2653184-4.22868694-50.83040772 13.75980263-9.82274928 17.54441116-4.00333371 40.2653184 13.76643067 50.39295735l125.53500091 72.88851134c18.06139796 10.34636412 41.06731075 4.22868694 50.9033161-13.75980264 10.62474162-17.76976438 4.79869803-40.56358002-13.2560719-50.61168251z m-150.5160684 177.53194293c10.12101089 17.47813081 4.2949673 40.2653184-13.75980264 50.60505448-17.47813081 10.33973609-40.2653184 4.00333371-50.32004893-13.54107744l-87.74193992-151.53015789c-10.34636412-17.76976438-4.52032051-40.8552136 13.2560719-50.90331611 17.69022795-10.55846127 40.47741555-4.22205889 51.11541326 13.54107745l87.45030633 151.82841951z m-218.89088728 78.42292136v-174.90724069c0-21.26273933-16.90149168-37.64724419-37.06397703-37.6472442-20.97773378 0.29163359-37.64724419 16.96777203-37.64724419 37.6472442V831.9756938200001c0 20.60656378 16.97440006 37.35561062 37.64724419 37.35561063 20.10283303 0 37.06397703-17.18649722 37.06397703-37.35561063z m-228.93898976-41.35894432l87.45030633-151.53015789c10.04810251-17.76976438 4.22205889-40.8552136-13.54107744-51.1949497-17.69685599-10.26682768-41.00103039-3.93042532-50.90331611 13.75980263L255.60768532 753.47986407a36.74583131 36.74583131 0 0 0 13.75980264 50.89668806c17.76976438 10.12101089 40.27194643 4.22868694 50.9033161-13.75980263zM142.15559395 640.39231468c-17.4052224 10.63136967-40.2653184 4.22868694-50.39295732-13.83271102-10.63136967-17.76976438-4.22205889-40.56358002 13.25607189-50.61168254l152.11342507-87.67565954c17.54441116-9.75646892 40.34485484-3.93042532 50.9033161 13.54107744 10.11438286 18.06139796 4.00333371 40.8552136-13.76643067 50.89668807L142.15559395 640.39231468zM64.02430618 421.20979382h175.12596587c20.1691134 0 37.14351346-16.67613845 37.14351348-37.06397703 0-20.67947216-16.97440006-37.35561062-37.14351348-37.35561061H64.02430618c-20.89819735 0-37.06397703 16.68276649-37.06397704 37.06397703-0.29163359 20.67947216 16.16577968 37.35561062 37.06397704 37.35561061z"  horiz-adv-x="1024" />

    
    <glyph glyph-name="addition" unicode="&#45060;" d="M512-30.252246910000054c-228.41868895 0-414.25224691 185.83355796-414.25224691 414.25224691S283.58131105 798.2522469099999 512 798.2522469099999s414.25224691-185.83355796 414.25224691-414.25224691-185.83355796-414.25224691-414.25224691-414.25224691m0 911.35494321C237.88928821 881.1026963 14.8973037 658.11071179 14.8973037 384s222.99198451-497.1026963 497.1026963-497.1026963 497.1026963 222.99198451 497.1026963 497.1026963S786.11071179 881.1026963 512 881.1026963M734.57773227 437.14856329H553.42522469v181.1939328a41.42522469 41.42522469 0 1 1-82.85044938 0v-181.1939328h-181.15250758a41.42522469 41.42522469 0 0 1 0-82.85044939H470.57477531v-181.1939328a41.42522469 41.42522469 0 0 1 82.85044938 0v181.1939328h181.1939328a41.42522469 41.42522469 0 0 1 0 82.85044939"  horiz-adv-x="1024" />

    
    <glyph glyph-name="close" unicode="&#59135;" d="M554.00517783 400.57008987l368.39452318 368.3945232a41.42522469 41.42522469 0 0 1-58.57526771 58.5752677L495.42991013 459.1453576 127.03538693 827.53988077a41.42522469 41.42522469 0 0 1-58.5752677-58.5752677l368.39452317-368.3945232-368.39452317-368.39452317a41.42522469 41.42522469 0 0 1 58.5752677-58.57526771l368.3945232 368.39452318 368.39452317-368.39452318a41.30094901 41.30094901 0 0 1 58.57526771 0 41.42522469 41.42522469 0 0 1 0 58.57526771L554.00517783 400.57008987z"  horiz-adv-x="1024" />

    
    <glyph glyph-name="collection" unicode="&#59120;" d="M749.03513568 339.50930868c-26.09789155-25.64221408-40.55529497-70.42288197-34.38293648-106.62852836l34.92146441-205.26198834-182.51953999 96.68647442c-32.43595093 17.15004302-79.49500619 17.19146825-111.93095712 0l-182.51953999-96.64504919 34.96288964 205.26198834c6.13093325 36.12279593-8.36789538 80.94488905-34.3829365 106.58710313l-148.3023044 145.65109002 204.64060999 29.95043745c36.16422115 5.30242877 74.19257742 33.14017975 90.34841505 66.07323338l91.21834478 186.2478102 91.21834476-186.2478102c16.19726285-32.97447885 54.1841939-60.77080462 90.38984027-66.07323338l204.64060999-29.95043745-148.30230441-145.65109002z m236.28948165 115.90777869c19.38700515 19.05560336 26.38786813 42.66798143 19.17987902 64.7476262-7.16656387 22.03821954-26.71926992 36.9098752-53.5213903 40.84527153l-246.31438602 36.08137072c-8.98927376 1.3256072-23.86092942 12.26186651-27.96202666 20.54691143l-110.14967245 224.93897008c-11.97188994 24.44088257-32.2288248 38.52545897-55.50980109 38.52545897-23.19812583 0-43.4550607-14.08457639-55.46837586-38.52545897l-110.10824722-224.93897008c-4.05967202-8.28504494-18.97275291-19.22130427-28.0034519-20.54691143l-246.31438601-36.03994549c-26.80212037-3.97682157-46.27197598-18.84847724-53.43853985-40.88669676-7.24941431-22.03821954-0.24855135-45.6505976 19.13845381-64.7476262L215.06398942 280.43693827000004c6.62803595-6.50376027 12.42756741-24.39945733 10.81198365-33.554432l-42.0880283-247.18431573c-4.55677472-26.92639605 3.60399455-50.24879755 22.45247178-63.87769648 9.73492781-7.04228819 21.04401413-10.5634323 32.97447886-10.56343229 11.10196021 0 22.82529881 3.06546663 34.38293649 9.19639988l220.2993449 116.69485796c7.87079269 4.14252247 26.51214381 4.14252247 34.3829365 0l220.25791968-116.69485796c23.94377987-12.71754398 48.55036334-12.17901605 67.35741536 1.36703241 18.84847724 13.67032415 27.05067173 36.9098752 22.49389699 63.83627125l-42.08802826 247.22574096c-1.57415854 9.15497467 4.1839477 27.05067173 10.7705584 33.554432l178.25274186 175.02157432z"  horiz-adv-x="1024" />

    
    <glyph glyph-name="computer_fill" unicode="&#59133;" d="M135.56898323 285.61509135999995H56.32252839v-98.01208162c0-45.89914896 35.50141757-83.22327641 79.20502962-83.22327641h336.82850196v-67.31599013h-118.84896964c-21.87251863 0-39.64394003-18.55850066-39.64394003-41.42522468 0-22.90814925 17.77142139-41.42522469 39.64394003-41.42522469h316.98581934c21.87251863 0 39.64394003 18.51707543 39.64394003 41.42522469 0 22.86672403-17.77142139 41.42522469-39.64394003 41.42522468h-118.84896964V104.37973333000002h336.82850196c43.70361205 0 79.2050296 37.32412745 79.20502962 83.22327641v98.01208162H135.56898323zM888.47244199 839.67747161H135.52755801C91.82394595 839.67747161 56.32252839 802.31191893 56.32252839 756.41276997v-387.94722922h911.35494322V756.41276997C967.67747161 802.31191893 932.17605405 839.67747161 888.47244199 839.67747161"  horiz-adv-x="1024" />

    
    <glyph glyph-name="delete" unicode="&#45058;" d="M512-30.252246910000054c-228.41868895 0-414.25224691 185.83355796-414.25224691 414.25224691S283.58131105 798.2522469099999 512 798.2522469099999s414.25224691-185.83355796 414.25224691-414.25224691-185.83355796-414.25224691-414.25224691-414.25224691m0 911.35494321C237.88928821 881.1026963 14.8973037 658.11071179 14.8973037 384s222.99198451-497.1026963 497.1026963-497.1026963 497.1026963 222.99198451 497.1026963 497.1026963S786.11071179 881.1026963 512 881.1026963M690.41844275 578.98853262a41.38379947 41.38379947 0 0 1-58.57526772 0L503.71495506 450.86031265l-128.12821997 128.12821997a41.38379947 41.38379947 0 1 1-58.57526771-58.57526771l128.12821997-128.12821997-128.12821997-128.12821997a41.42522469 41.42522469 0 0 1 58.57526771-58.57526772l128.12821997 128.12821998 128.12821997-128.12821998a41.30094901 41.30094901 0 0 1 58.57526772 0 41.38379947 41.38379947 0 0 1 0 58.57526772L562.29022277 392.28504494l128.12821998 128.12821997a41.38379947 41.38379947 0 0 1 0 58.57526771"  horiz-adv-x="1024" />

    
    <glyph glyph-name="enterinto" unicode="&#59129;" d="M512-30.252246910000054c-228.41868895 0-414.25224691 185.83355796-414.25224691 414.25224691s185.83355796 414.25224691 414.25224691 414.25224691 414.25224691-185.83355796 414.25224691-414.25224691-185.83355796-414.25224691-414.25224691-414.25224691m0 911.35494321c-274.11071179 0-497.1026963-222.99198451-497.1026963-497.1026963s222.99198451-497.1026963 497.1026963-497.1026963 497.1026963 222.99198451 497.1026963 497.1026963-222.99198451 497.1026963-497.1026963 497.1026963M456.82160071 580.5212659399999a41.38379947 41.38379947 0 1 1-55.34410018-61.64073435l173.488841-155.75884484-174.11021938-162.9254087a41.42522469 41.42522469 0 0 1 56.58685693-60.48082806l207.12612346 193.78720111a41.38379947 41.38379947 0 0 1-0.62137837 61.0607812l-207.12612346 185.99925887z"  horiz-adv-x="1024" />

    
    <glyph glyph-name="feedback_fill" unicode="&#45064;" d="M553.42522469 293.77586062v-20.04980875a41.42522469 41.42522469 0 1 0-82.85044938 0V321.86216297c0 19.22130427 13.33892235 34.63148784 31.06891852 39.35396345 93.24818078 38.9397112 93.28960601 96.68647443 93.20675556 99.17198791l-0.04142523 63.67057035c0 36.95130043-37.15842655 67.108864-82.85044939 67.108864-45.6505976 0-82.80902416-30.15756357-82.80902416-67.108864v-20.17408441a41.42522469 41.42522469 0 0 0-82.85044937 0v20.17408441c0 82.64332325 74.3168531 149.95931339 165.65947353 149.95931338 91.38404567 0 165.70089876-67.31599013 165.70089878-149.95931338v-61.59930912c0.20712613-1.65700898 6.04808281-104.55726711-124.23424886-168.68351494M512 94.02342716999999a41.42522469 41.42522469 0 1 0 0 82.85044936 41.42522469 41.42522469 0 0 0 0-82.85044936m0 787.07926913C237.88928821 881.1026963 14.8973037 658.06928656 14.8973037 384c0-274.11071179 222.99198451-497.1026963 497.1026963-497.1026963s497.1026963 222.99198451 497.1026963 497.1026963c0 274.06928656-222.99198451 497.1026963-497.1026963 497.1026963"  horiz-adv-x="1024" />

    
    <glyph glyph-name="feedback" unicode="&#45065;" d="M760.55134815 53.38528173999998A411.68388299 411.68388299 0 0 0 512-30.252246910000054a411.68388299 411.68388299 0 0 0-248.55134815 83.63752865C163.07533243 129.06916724999996 97.74775309 248.87091707000002 97.74775309 384c0 228.41868895 185.83355796 414.25224691 414.25224691 414.25224691s414.25224691-185.83355796 414.25224691-414.25224691c0-135.12908293-65.32757934-254.93083275-165.70089876-330.61471826M512 881.1026963C237.88928821 881.1026963 14.8973037 658.11071179 14.8973037 384c0-183.51374539 100.20761853-343.70508926 248.55134815-429.82813139A493.62297742 493.62297742 0 0 1 511.91714955-113.10269630000005h0.1657009A493.62297742 493.62297742 0 0 1 760.55134815-45.82813138999995c148.34372962 86.12304213 248.55134815 246.31438602 248.55134815 429.82813139 0 274.11071179-222.99198451 497.1026963-497.1026963 497.1026963M677.61804832 524.01725947C677.61804832 606.7848584000001 603.30119522 673.97657283 512 673.97657283c-91.38404567 0-165.70089876-67.23313968-165.70089876-149.95931336v-20.09123399a41.42522469 41.42522469 0 1 1 82.85044937 0v20.1326592c0 36.99272565 37.19985177 67.06743877 82.85044939 67.06743879 45.69202284 0 82.85044939-30.07471312 82.85044939-67.108864v-63.62914514c0.08285045-1.98841078-0.70422882-40.92812199-51.53297952-76.38811433a219.34656475 219.34656475 0 0 0-41.63235082-22.78387358 40.88669677 40.88669677 0 0 1-31.06891852-39.35396345v-48.1361111a41.42522469 41.42522469 0 0 1 82.85044939 0v20.04980875c54.30846957 26.76069515 85.04598629 60.14942625 102.32030498 90.22413938 24.02663031 42.08802829 21.99679431 77.46517017 21.87251865 78.5008008V524.01725947zM512 176.87387652999996a41.42522469 41.42522469 0 1 1 0-82.85044936 41.42522469 41.42522469 0 0 1 0 82.85044936"  horiz-adv-x="1024" />

    
    <glyph glyph-name="homepage_fill" unicode="&#59138;" d="M677.70089876 2.1015109600000415H234.3267189v0.12427568l111.97238234-0.04142523v153.89470972c0 1.03563061 0.28997657 1.98841078 0.28997657 2.98261618 1.65700898 90.0998637 75.06250715 162.96683394 165.41092219 162.96683394s163.75391321-72.90839547 165.41092219-162.96683394c0-0.99420539 0.28997657-1.94698557 0.28997657-2.98261618v-153.97756017z m311.84909148 553.648128L884.82702222 624.3498110400001V757.28335707a41.42522469 41.42522469 0 1 1-82.85044939 0v-78.7079269l-267.2755497 175.18727522A40.51386975 40.51386975 0 0 1 511.25434595 859.76936297a40.34816885 40.34816885 0 0 1-22.78387358-6.00665758L33.62150526 555.70821373a41.42522469 41.42522469 0 0 1 45.40204626-69.30440091L97.74775309 498.70710456V-10.160355549999963c0-38.9397112 35.17001577-70.67143333 78.41795034-70.67143333h671.66859314C891.08223115-80.79036364000001 926.25224691-49.100066760000004 926.25224691-10.160355549999963V498.12715142l17.9371223-11.7233386a41.38379947 41.38379947 0 0 1 45.36062103 69.30440091z"  horiz-adv-x="1024" />

    
    <glyph glyph-name="homepage" unicode="&#59139;" d="M843.40179753 2.060085729999969l-165.70089877 0.04142523v153.97756017a165.99087534 165.99087534 0 0 1-165.70089876 165.94945012c-91.38404567 0-165.70089876-74.44112877-165.70089876-165.94945012v-153.89470972l-165.70089877 0.04142523V552.9741489l330.98754528 216.86105126L843.40179753 552.47704621v-550.41696048z m-248.55134814 0.04142523l-165.70089878 0.04142522v153.93613495c0 45.81629851 37.15842655 83.09900073 82.85044939 83.09900073s82.85044939-37.28270222 82.85044939-83.09900073v-153.97756017z m394.69954085 553.648128L884.82702222 624.3498110400001V757.28335707a41.42522469 41.42522469 0 1 1-82.85044939 0v-78.66650169l-267.2755497 175.14585001A40.51386975 40.51386975 0 0 1 511.25434595 859.76936297a40.34816885 40.34816885 0 0 1-22.78387358-6.00665758l-454.84896711-298.01306643a41.42522469 41.42522469 0 0 1 45.40204626-69.30440091L97.74775309 498.70710456v-508.82603488c0-38.9397112 35.21144098-70.67143333 78.41795034-70.67143332h671.66859314c43.24793458 0 78.41795035 31.73172211 78.41795034 70.67143332v508.28750695l17.9371223-11.72333858a41.38379947 41.38379947 0 0 1 45.36062103 69.30440091z"  horiz-adv-x="1024" />

    
    <glyph glyph-name="interactive_fill" unicode="&#59140;" d="M739.83873581 508.27567408a62.13783703 62.13783703 0 0 0-0.08285046 124.27567407h0.1657009a62.13783703 62.13783703 0 0 0-0.08285044-124.27567407m-207.12612346 0a62.13783703 62.13783703 0 0 0-0.08285045 124.27567407h0.16570089a62.13783703 62.13783703 0 0 0-0.08285044-124.27567407m469.72062276 331.40179753h-0.04142521c-11.06053499 24.44088257-34.75576352 41.42522469-62.34496316 41.42522469H332.50450142c-27.58919965 0-51.32585339-16.98434213-62.34496317-41.42522469a73.15694681 73.15694681 0 0 1-6.7108864-30.11613836V632.55134815H56.32252839h69.05584956C87.30859646 632.55134815 56.32252839 600.40537378 56.32252839 560.88570943v-488.23769821c0-39.56108958 31.06891852-71.66563872 69.18012524-71.66563872H204.58340756c1.78128466-0.08285045 4.51534949-1.24275675 7.00086298-2.77549005l0.3314018-59.36234698c0-3.60399455 0.8285045-7.04228819 1.78128465-10.52200708a40.84527155 40.84527155 0 0 1 6.79373686-14.49882864c13.17322145-17.10861779 32.31167525-26.92639605 52.65146058-26.92639605h0.08285046c19.13845381 0 37.19985177 8.69929718 50.24879754 23.90235465l18.43422498 17.52287004 58.07816503 55.26124974c2.56836393 2.40266303 6.17235849 7.5393909 8.03649359 10.52200708a20.50548622 20.50548622 0 0 0 11.72333859 6.83516208h313.21612388c19.80125741 0 37.65552925 8.7407224 50.29022279 22.65959789l-0.45567748 0.45567749h0.70422882l-37.48982835 35.37714186-25.35223751 24.35803213h-0.45567747l-103.3559356 97.59782938H346.29910124c-148.92368276 1.28418196-152.77622866 122.95006688-152.77622867 122.95006688V586.98360098c0.1657009 1.40845763 0.86992972 2.69263961 0.86992972 4.1839477 0 1.49130809-0.70422882 2.73406483-0.86992972 4.18394769v0.3314018h-0.04142522A41.01097245 41.01097245 0 0 1 152.9675776 632.55134815H263.44865185v-311.47626445c0-6.95943775 1.28418196-13.54604848 3.10689185-19.88410786 8.40932062-29.78473655 34.63148784-51.69868042 65.90753248-51.69868041h313.21612391a20.50548622 20.50548622 0 0 0 11.68191335-6.75231162 41.13524812 41.13524812 0 0 1 8.07791883-10.60485753l76.55381522-72.78411978c13.00752055-15.20305746 31.15176897-23.90235465 50.24879754-23.90235465 3.31401797 0 6.50376027 0.66280359 9.7349278 1.15990628a67.108864 67.108864 0 0 1 42.95795802 25.76648977c5.50955488 7.16656387 8.53359629 15.9487115 8.61644673 25.02083572l0.3314018 59.36234697a17.10861779 17.10861779 0 0 0 6.91801252 2.73406484h79.12217916c31.40032032 0 57.66391277 21.95536909 66.11465861 51.65725518a72.90839547 72.90839547 0 0 1 3.06546663 20.04980876V809.43705758c0 10.85340887-2.48551348 21.04401413-6.66946119 30.28183925"  horiz-adv-x="1024" />

    
    <glyph glyph-name="like_fill" unicode="&#59143;" d="M719.12612347 798.2522469099999a288.31956385 288.31956385 0 0 1-207.12612347-87.61435022A288.15386295 288.15386295 0 0 1 304.87387653 798.2522469099999c-159.90136731 0-289.97657283-130.98656048-289.97657283-292.04783408 0-67.64739191 23.4881024-133.59634963 68.51732163-188.4019219l370.17580785-380.57353923a80.94488905 80.94488905 0 0 1 116.77770842 0l372.57847086 383.22475363A294.03624485 294.03624485 0 0 1 1009.1026963 506.20441283C1009.1026963 667.26568643 879.02749076 798.2522469099999 719.12612347 798.2522469099999"  horiz-adv-x="1024" />

    
    <glyph glyph-name="like" unicode="&#59144;" d="M881.18160245 375.59067938l-368.14597184-380.61496445-367.85599525 378.0051753A210.68869278 210.68869278 0 0 0 97.74775309 506.20441283C97.74775309 621.5322383800001 190.7059573 715.4017975300001 304.87387653 715.4017975300001a206.29761897 206.29761897 0 0 0 172.53606086-93.41388168L512 569.5850066099999l34.59006261 52.40290924A206.46331986 206.46331986 0 0 0 719.12612347 715.4017975300001c114.20934448 0 207.12612347-93.86955915 207.12612344-209.1973847 0-48.59178857-16.81864123-95.89939517-45.07064446-130.61373345M719.12612347 798.2522469099999a288.31956385 288.31956385 0 0 1-207.12612347-87.65577544A288.19528818 288.19528818 0 0 1 304.87387653 798.2522469099999c-159.90136731 0-289.97657283-131.0279857-289.97657283-292.04783408 0-67.68881715 23.52952763-133.63777485 68.55874687-188.4019219l370.17580783-380.57353923a80.77918815 80.77918815 0 0 1 58.3681416-24.81370959c22.1624952 0 42.87510755 8.82357285 58.40956682 24.77228438l372.49562041 383.26617884A293.62199262 293.62199262 0 0 1 1009.1026963 506.20441283C1009.1026963 667.22426122 879.02749076 798.2522469099999 719.12612347 798.2522469099999"  horiz-adv-x="1024" />

    
    <glyph glyph-name="lock_fill" unicode="&#59145;" d="M359.63802358 636.94242196A161.39267539 161.39267539 0 0 0 520.69929718 798.2522469099999a161.43410062 161.43410062 0 0 0 161.14412406-161.30982495V508.27567408h-322.20539766V636.94242196zM553.42522469 135.44865185000003a41.42522469 41.42522469 0 0 0-82.85044938 0v165.70089876a41.42522469 41.42522469 0 0 0 82.85044938 0v-165.70089876z m331.73319933 372.82702223H764.69387061V636.94242196A244.32597523 244.32597523 0 0 1 520.69929718 881.1026963c-134.50770457 0-243.91172299-109.52829408-243.91172297-244.16027434V508.27567408h-137.94599823A82.85044939 82.85044939 0 0 1 56.32252839 425.30094901v-414.04512078A82.85044939 82.85044939 0 0 1 138.84157598-71.67747161h746.31684804A82.85044939 82.85044939 0 0 1 967.67747161 11.25582823000002v414.04512078A82.85044939 82.85044939 0 0 1 885.15842402 508.27567408z"  horiz-adv-x="1024" />

    
    <glyph glyph-name="manage_fill" unicode="&#59147;" d="M366.51526827 829.61114201H117.71536877A82.85044939 82.85044939 0 0 1 34.98919506 746.8849683v-248.7998995a82.85044939 82.85044939 0 0 1 82.72617371-82.72617371h248.7998995A82.85044939 82.85044939 0 0 1 449.24144198 498.0850688V746.8849683a82.85044939 82.85044939 0 0 1-82.72617371 82.72617371M973.64336134 681.01886103l-175.93292925 175.89150404a82.85044939 82.85044939 0 0 1-116.98483454 0L656.36756543 832.5523329600001 504.79266829 681.01886103a82.14622057 82.14622057 0 0 1-24.15090599-58.32671636 82.14622057 82.14622057 0 0 1 24.15090599-58.65811816l24.35803212-24.35803211L656.36756543 412.37627891l24.35803212-24.35803212a82.72617371 82.72617371 0 0 1 116.98483454 0.04142523l151.57489714 151.61632238 24.35803211 24.31660688a82.76759893 82.76759893 0 0 1 0 116.98483454M366.51526827 332.50844571000005H117.71536877A82.85044939 82.85044939 0 0 1 34.98919506 249.78227200000003v-248.7998995a82.85044939 82.85044939 0 0 1 82.72617371-82.72617371h248.7998995A82.85044939 82.85044939 0 0 1 449.24144198 0.9823724999999968V249.78227200000003a82.85044939 82.85044939 0 0 1-82.72617371 82.72617371M863.61796457 332.50844571000005h-248.7998995A82.85044939 82.85044939 0 0 1 532.09189136 249.78227200000003v-248.7998995a82.85044939 82.85044939 0 0 1 82.72617371-82.72617371h248.7998995A82.85044939 82.85044939 0 0 1 946.34413828 0.9823724999999968V249.78227200000003a82.85044939 82.85044939 0 0 1-82.72617371 82.72617371"  horiz-adv-x="1024" />

    
    <glyph glyph-name="mobilephone_fill" unicode="&#59151;" d="M801.97657283 259.72432591999996H222.02342717l0.04142521 497.1026963L801.97657283 757.15842402l0.12427568-497.47552332L801.97657283 259.72432591999996z m-248.55134814-207.12612345h-82.85044938a41.42522469 41.42522469 0 0 0 0 82.85044938h82.85044938a41.42522469 41.42522469 0 0 0 0-82.85044938z m248.50992293 787.07926914H222.06485238A82.85044939 82.85044939 0 0 1 139.17297778 757.15842402v-746.31684804A82.85044939 82.85044939 0 0 1 222.06485238-71.67747161h579.87029524A82.85044939 82.85044939 0 0 1 884.82702222 10.841575980000016V757.15842402A82.85044939 82.85044939 0 0 1 801.93514762 839.67747161z"  horiz-adv-x="1024" />

    
    <glyph glyph-name="more" unicode="&#59152;" d="M222.02342717 455.37566213A81.89766922 81.89766922 0 0 1 180.59820247 466.85044939a82.85044939 82.85044939 0 1 1 0-165.70089878c15.16163223 0 29.20478341 4.39107381 41.4252247 11.51621247 24.64800869 14.33312773 41.42522469 40.7624211 41.42522468 71.33423692 0 30.61324105-16.777216 57.0425344-41.42522468 71.37566213M553.42522469 455.37566213A81.89766922 81.89766922 0 0 1 512 466.85044939c-15.16163223 0-29.20478341-4.34964859-41.42522469-11.47478726-24.64800869-14.33312773-41.42522469-40.7624211-41.4252247-71.37566213 0-30.57181582 16.777216-57.00110917 41.4252247-71.33423692 12.22044128-7.12513865 26.26359245-11.51621246 41.42522469-11.51621247s29.20478341 4.39107381 41.42522469 11.51621247c24.64800869 14.33312773 41.42522469 40.7624211 41.4252247 71.33423692 0 30.61324105-16.777216 57.0425344-41.4252247 71.37566213M843.40179753 466.85044939c-15.16163223 0-29.20478341-4.39107381-41.4252247-11.47478726-24.64800869-14.37455297-41.42522469-40.80384631-41.42522468-71.37566213 0-30.57181582 16.777216-57.00110917 41.42522468-71.37566213 12.22044128-7.08371342 26.26359245-11.47478723 41.4252247-11.47478726a82.85044939 82.85044939 0 1 1 0 165.70089878"  horiz-adv-x="1024" />

    
    <glyph glyph-name="offline" unicode="&#45062;" d="M512-30.252246910000054c-228.41868895 0-414.25224691 185.83355796-414.25224691 414.25224691S283.58131105 798.2522469099999 512 798.2522469099999s414.25224691-185.83355796 414.25224691-414.25224691-185.83355796-414.25224691-414.25224691-414.25224691m0 911.35494321C237.88928821 881.1026963 14.8973037 658.11071179 14.8973037 384s222.99198451-497.1026963 497.1026963-497.1026963 497.1026963 222.99198451 497.1026963 497.1026963S786.11071179 881.1026963 512 881.1026963M684.86746263 433.71026963h-331.40179753a41.42522469 41.42522469 0 0 1 0-82.85044938h331.40179753a41.42522469 41.42522469 0 0 1 0 82.85044938"  horiz-adv-x="1024" />

    
    <glyph glyph-name="order_fill" unicode="&#59155;" d="M677.70089876 425.46664992h-331.40179752a41.42522469 41.42522469 0 0 0 0 82.85044938h331.40179752a41.42522469 41.42522469 0 0 0 0-82.85044938m0-207.12612347h-331.40179752a41.42522469 41.42522469 0 0 0 0 82.85044939h331.40179752a41.42522469 41.42522469 0 0 0 0-82.85044939M885.15842402 881.1026963H138.84157598A82.85044939 82.85044939 0 0 1 56.32252839 798.16939646v-828.29736769A82.85044939 82.85044939 0 0 1 138.84157598-113.10269630000005h746.31684804A82.85044939 82.85044939 0 0 1 967.67747161-30.127971229999957V798.16939646A82.85044939 82.85044939 0 0 1 885.15842402 881.1026963"  horiz-adv-x="1024" />

    
    <glyph glyph-name="prompt_fill" unicode="&#45072;" d="M553.42522469 301.14955061a41.42522469 41.42522469 0 0 0-82.85044938 0v331.40179754a41.42522469 41.42522469 0 0 0 82.85044938 0v-331.40179754z m-41.42522469-207.12612344a41.42522469 41.42522469 0 1 0 0 82.85044936 41.42522469 41.42522469 0 0 0 0-82.85044936z m0 787.07926913C237.88928821 881.1026963 14.8973037 658.11071179 14.8973037 384s222.99198451-497.1026963 497.1026963-497.1026963 497.1026963 222.99198451 497.1026963 497.1026963S786.11071179 881.1026963 512 881.1026963z"  horiz-adv-x="1024" />

    
    <glyph glyph-name="prompt" unicode="&#45073;" d="M512-30.252246910000054c-228.41868895 0-414.25224691 185.83355796-414.25224691 414.25224691 0 135.12908293 65.32757934 254.93083275 165.70089876 330.61471826A411.68388299 411.68388299 0 0 0 512 798.2522469099999c93.33103123 0 179.20552202-31.40032032 248.55134815-83.63752865 100.37331943-75.68388551 165.70089876-195.48563532 165.70089876-330.61471826 0-228.41868895-185.83355796-414.25224691-414.25224691-414.25224691m248.55134815 844.0803783A493.49870175 493.49870175 0 0 1 512 881.1026963c-90.5969664 0-175.3115509-24.77228436-248.55134815-67.27456491C115.10492223 727.70508926 14.8973037 567.5137453899999 14.8973037 384c0-274.11071179 222.99198451-497.1026963 497.1026963-497.1026963s497.1026963 222.99198451 497.1026963 497.1026963c0 183.51374539-100.20761853 343.70508926-248.55134815 429.82813139M512 508.27567408a41.42522469 41.42522469 0 0 1-41.42522469-41.42522469v-331.40179754a41.42522469 41.42522469 0 0 1 82.85044938 0v331.40179754a41.42522469 41.42522469 0 0 1-41.42522469 41.42522469M512 673.97657283a41.42522469 41.42522469 0 1 1 0-82.85044936 41.42522469 41.42522469 0 0 1 0 82.85044936"  horiz-adv-x="1024" />

    
    <glyph glyph-name="qrcode_fill" unicode="&#59165;" d="M387.8486016 839.67747161H139.0487021A82.85044939 82.85044939 0 0 1 56.32252839 756.9512979v-248.7998995A82.85044939 82.85044939 0 0 1 139.0487021 425.42522469h248.7998995A82.85044939 82.85044939 0 0 1 470.57477531 508.1513984V756.9512979A82.85044939 82.85044939 0 0 1 387.8486016 839.67747161M387.8486016 342.57477530999995H139.0487021A82.85044939 82.85044939 0 0 1 56.32252839 259.84860160000005v-248.7998995A82.85044939 82.85044939 0 0 1 139.0487021-71.67747161h248.7998995A82.85044939 82.85044939 0 0 1 470.57477531 11.048702100000014v248.7998995A82.85044939 82.85044939 0 0 1 387.8486016 342.57477530999995M884.9512979 839.67747161h-248.7998995A82.85044939 82.85044939 0 0 1 553.42522469 756.9512979v-248.7998995A82.85044939 82.85044939 0 0 1 636.1513984 425.42522469h248.7998995A82.85044939 82.85044939 0 0 1 967.67747161 508.1513984V756.9512979A82.85044939 82.85044939 0 0 1 884.9512979 839.67747161M760.55134815 259.72432591999996a41.42522469 41.42522469 0 0 1-41.42522468-41.42522468v-248.55134815a41.42522469 41.42522469 0 1 1 82.85044936 0v248.55134815a41.42522469 41.42522469 0 0 1-41.42522468 41.42522468M594.85044939 259.72432591999996a41.42522469 41.42522469 0 0 1-41.4252247-41.42522468v-248.55134815a41.42522469 41.42522469 0 1 1 82.85044939 0v248.55134815a41.42522469 41.42522469 0 0 1-41.42522469 41.42522468M926.25224691 342.57477530999995a41.42522469 41.42522469 0 0 1-41.42522469-41.4252247v-331.40179752a41.42522469 41.42522469 0 1 1 82.85044939 0v331.40179752a41.42522469 41.42522469 0 0 1-41.4252247 41.4252247"  horiz-adv-x="1024" />

    
    <glyph glyph-name="scan" unicode="&#59170;" d="M926.25224691 425.42522469H97.74775309a41.42522469 41.42522469 0 0 1 0-82.85044938h828.50449382a41.42522469 41.42522469 0 0 1 0 82.85044938M885.15842402 839.67747161H138.80015075a82.60189804 82.60189804 0 0 1-82.43619713-82.51904759V549.70089876a41.42522469 41.42522469 0 1 1 82.85044939 0l-0.41425226 207.12612346 746.0682967 0.3314018V549.70089876a41.42522469 41.42522469 0 1 1 82.85044938 0V757.15842402A82.64332325 82.64332325 0 0 1 885.11699879 839.67747161M926.25224691 259.72432591999996a41.42522469 41.42522469 0 0 1-41.42522469-41.42522468l0.3314018-207.12612346L139.17297778 10.841575980000016V218.29910124000003a41.42522469 41.42522469 0 0 1-82.85044939 0v-207.45752526C56.32252839-34.64332073000003 93.35667927-71.67747161 138.84157598-71.67747161h746.31684804A82.64332325 82.64332325 0 0 1 967.67747161 10.841575980000016V218.29910124000003a41.42522469 41.42522469 0 0 1-41.4252247 41.42522468"  horiz-adv-x="1024" />

    
    <glyph glyph-name="success_fill" unicode="&#45056;" d="M711.71100823 435.40870384l-227.3416331-248.55134814a41.30094901 41.30094901 0 0 0-30.57181582-13.46319803h-0.24855134a41.42522469 41.42522469 0 0 0-30.65466628 13.83602505l-110.97817694 124.27567408a41.42522469 41.42522469 0 1 0 61.80643523 55.17839929l80.44778635-90.09986372 196.39699026 214.7483648a41.42522469 41.42522469 0 1 0 61.14363164-55.92405333m-199.669583 445.73541767C237.84786299 881.1026963 14.8973037 658.02786133 14.8973037 384c0-274.15213701 222.95055929-497.1026963 497.1026963-497.1026963 274.02786133 0 497.1026963 222.95055929 497.1026963 497.1026963 0 274.02786133-223.07483497 497.1026963-497.1026963 497.1026963"  horiz-adv-x="1024" />

    
    <glyph glyph-name="success" unicode="&#45057;" d="M512-30.252246910000054c-228.41868895 0-414.25224691 185.83355796-414.25224691 414.25224691S283.58131105 798.2522469099999 512 798.2522469099999s414.25224691-185.83355796 414.25224691-414.25224691-185.83355796-414.25224691-414.25224691-414.25224691m0 911.35494321C237.88928821 881.1026963 14.8973037 658.11071179 14.8973037 384s222.99198451-497.1026963 497.1026963-497.1026963 497.1026963 222.99198451 497.1026963 497.1026963S786.11071179 881.1026963 512 881.1026963M650.60880181 491.33275717l-196.43841548-214.7483648-80.40636112 90.09986372a41.42522469 41.42522469 0 1 1-61.80643525-55.17839929l110.93675173-124.27567408a41.42522469 41.42522469 0 0 1 30.65466628-13.83602505h0.24855134c11.59906291 0 22.70102313 4.88817651 30.57181582 13.46319803l227.38305833 248.55134814a41.42522469 41.42522469 0 0 1-61.14363165 55.92405333"  horiz-adv-x="1024" />

    
    <glyph glyph-name="task_fill" unicode="&#59186;" d="M711.75243346 433.79312009l-227.34163311-248.55134816c-7.87079269-8.57502151-18.97275291-13.46319803-30.61324104-13.46319803h-0.20712613a41.50807515 41.50807515 0 0 0-30.65466627 13.83602505l-110.97817695 124.27567408a41.42522469 41.42522469 0 1 0 61.80643525 55.17839929l80.40636112-90.0998637 196.39699026 214.7483648a41.46664992 41.46664992 0 0 0 61.18505687-55.92405333m172.90888787 404.31019298H801.97657283c-0.08285045 0 0-26.59499425 0-41.83947694v-82.0219449a83.0575755 83.0575755 0 0 0-82.60189802-83.34755206h-414.66649916A83.0575755 83.0575755 0 0 0 222.02342717 714.20046602v82.02194488c0 15.32733314-0.1657009 27.79632577-0.16570091 41.83947694H138.84157598A82.60189804 82.60189804 0 0 1 56.32252839 755.58426548v-746.31684804c0-45.52632194 36.99272565-82.51904758 82.51904759-82.51904757H885.24127447A82.60189804 82.60189804 0 0 1 967.67747161 9.225992209999959V755.58426548c0 45.48489671-37.28270222 82.51904758-83.01615028 82.51904759M714.73504963 853.34779575a55.09554883 55.09554883 0 0 1-47.63900838 27.75490055H361.62643437c-20.42263577 0-38.11120672-11.18481067-47.72185885-27.71347532a55.84120288 55.84120288 0 0 1-7.78794224-28.12772756v-55.0126984c0-30.86179239 24.85513482-55.92405333 55.50980109-55.92405333h305.46960688c30.57181582 0 55.42695063 25.06226094 55.42695063 55.92405333V825.26149342c0 10.35630617-2.94119095 19.75983218-7.78794225 28.08630233"  horiz-adv-x="1024" />

    
    <glyph glyph-name="time_fill" unicode="&#59189;" d="M680.18641225 206.70003830999997a41.30094901 41.30094901 0 0 0-58.57526772 0l-138.8987784 138.81592795a41.25952379 41.25952379 0 0 0-12.13759082 29.28763386V632.55134815a41.42522469 41.42522469 0 0 0 82.85044938 0v-240.597705l126.76118756-126.71976235a41.38379947 41.38379947 0 0 0 0-58.5752677M512 881.1026963C237.88928821 881.1026963 14.8973037 658.11071179 14.8973037 384s222.99198451-497.1026963 497.1026963-497.1026963 497.1026963 222.99198451 497.1026963 497.1026963S786.11071179 881.1026963 512 881.1026963"  horiz-adv-x="1024" />

    
    <glyph glyph-name="warning_fill" unicode="&#59197;" d="M524.93243733 206.22040177999997a38.83614815 38.83614815 0 1 0 0-77.6722963 38.83614815 38.83614815 0 0 0 0 77.6722963z m-38.83614815 310.68918518a38.83614815 38.83614815 0 1 0 77.6722963 0v-194.18074074a38.83614815 38.83614815 0 1 0-77.6722963 0v194.18074074z m507.93798164-441.25631526L578.17679645 798.89885866c-12.27222282 21.35988148-31.69029689 33.6321043-53.24435912 33.6321043s-40.93330015-12.23338667-53.24435911-33.6321043L55.86944 75.69210784999996c-12.27222282-21.35988148-13.12661808-44.31204503-2.33016889-62.91456 10.75761303-18.64135111 31.03008237-29.32129185 55.53569186-29.32129185h831.75378488c24.54444563 0 44.77807882 10.64110459 55.53569185 29.2824557 10.83528533 18.64135111 9.98089008 41.59351467-2.33016888 62.91456z"  horiz-adv-x="1024" />

    
    <glyph glyph-name="load" unicode="&#59205;" d="M834.83116976 167.11070394c-39.36337798 39.36337798-103.33553732 39.36337798-142.70519219 0-39.36337798-39.36808565-39.36337798-103.33553732 0-142.70519099 39.36965488-39.36965488 103.341813-39.36965488 142.70519219 0 39.36965488 39.36965488 39.36965488 103.33710655 0 142.70519099zM136.07550126 619.82564413c19.68168899-19.68168899 54.12896039-19.68168899 73.8106494 0 19.68168899 19.68796589 19.68168899 54.12896039 0 73.81692628-19.68168899 19.68168899-54.12896039 19.68168899-73.8106494 0-19.68796589-24.60407247-19.68796589-54.12896039 0-73.81692628z m98.41472187-477.31587421c-24.60407247 29.51861104-68.89454282 29.51861104-98.41472187 0-24.61034937-29.52645715-24.61034937-73.81692628 0-98.42256798 29.52018026-24.60407247 73.8106494-24.60407247 98.41472187 0 24.60250324 29.52488793 24.60250324 73.81692628 0 98.42256798z m600.34094663 600.33937742c-39.36337798 39.36337798-103.33553732 39.36337798-142.70519219 0-39.36337798-39.36808565-39.36337798-103.33553732 0-142.7051922 39.36965488-39.36965488 103.341813-39.36965488 142.70519219 0 39.36965488 39.36965488 39.36965488 103.33710655 0 142.7051922z m-34.4472714-373.9803381c0-59.05134387 44.29203835-103.34338222 103.341813-103.34338223S1007.06281791 314.73357195000006 1007.06281791 368.86880924c0 59.04349776-44.28576146 103.33553732-103.33553732 103.3355361s-103.34338222-49.2128526-103.34338223-103.3355361zM67.18095845 432.83469046c-29.52488793 0-49.20657693-24.60407247-49.20657691-49.20500648 0-29.52645715 24.60407247-49.20814614 49.20657691-49.20814616 29.52488793 0 49.20657693 24.60407247 49.20657693 49.20814616 0 29.52331871-24.60407247 49.2050077-49.20657693 49.20500648z m408.42917873-373.98190732c-44.28576146 0-83.65541634-34.4472714-83.65541755-83.660124 0-44.28576146 34.4472714-83.64914066 83.65541755-83.64913945 44.29203835 0 83.65541634 34.4472714 83.65541635 83.64913945-0.00156923 44.29046913-34.44884063 83.66012401-83.65541635 83.660124z m-14.76087474 816.85835746c-59.05134387 0-103.33553732-44.28419345-103.33553732-103.33553733 0-54.12896039 44.28576146-103.33710655 103.33553732-103.33710533s103.33553732 44.28576146 103.33553611 103.33710533c0.00156923 59.05134387-44.28419345 103.33553732-103.33553611 103.33553733z m0 0"  horiz-adv-x="1024" />

    
    <glyph glyph-name="transaction_fill" unicode="&#59208;" d="M549.95876189 301.84549439V381.74646779h119.98070677c20.1691134 0 36.51385005 15.64879289 36.51385005 34.9562616s-16.35136468 34.9562616-36.51385005 34.9562616h-104.86878481l0.27837752 0.25849339 104.33191389 99.8712457c14.26353337 13.65375406 14.26353337 35.7847661 0 49.43852016s-37.38212276 13.65375406-51.63902809 0l-104.3319139-99.87787373-0.26512143-0.25186537-0.26512145 0.25186537-104.3319139 99.88450177c-14.26353337 13.65375406-37.38212276 13.65375406-51.64565612 0s-14.26353337-35.7847661 0-49.43852015l104.3319139-99.87124571 0.27837751-0.2584934H356.94372697c-20.1691134 0-36.51385005-15.64879289-36.51385005-34.9562616s16.35136468-34.9562616 36.51385005-34.9562616h119.98070678v-79.90097339H356.94372697c-20.1691134 0-36.51385005-15.64879289-36.51385005-34.9562616s16.35136468-34.9562616 36.51385005-34.95626161h119.98070678v-29.95209446c0-19.30746873 16.35136468-34.9562616 36.51385005-34.95626161s36.51385005 15.64879289 36.51385006 34.95626161v29.95209446h119.98070677c20.1691134 0 36.51385005 15.64879289 36.51385005 34.95626161s-16.35136468 34.9562616-36.51385005 34.9562616h-119.97407874zM217.88753273 743.83607177L421.92499143 816.67155883c49.68375749 17.7366242 130.40660733 17.75650831 180.15001714 0l204.0374587-72.83548706c49.68375749-17.7366242 90.07500857-75.25472018 90.07500857-128.41819655v-301.40330683c0-236.20331717-384.18747584-375.9952234-384.18747584-375.9952234s-384.18747584 139.79190624-384.18747584 375.9952234V615.41787522c0 53.70697531 40.32497072 110.66168822 90.07500857 128.41819655z"  horiz-adv-x="1024" />

    
    <glyph glyph-name="packup" unicode="&#40964;" d="M875.79632323 127.32930782000005a41.42522469 41.42522469 0 1 1 59.48662267 57.66391277l-401.70040384 414.25224691a41.42522469 41.42522469 0 0 1-60.0665758-0.62137838l-385.3788653-414.2522469a41.42522469 41.42522469 0 0 1 60.64652894-56.42115603l355.6769792 382.31339866 371.33571413-382.93477703z"  horiz-adv-x="1024" />

    
    <glyph glyph-name="unfold" unicode="&#40965;" d="M148.7836299 598.62408912a41.42522469 41.42522469 0 0 1-60.64652894-56.42115602l385.3788653-414.25224691a41.42522469 41.42522469 0 0 1 60.0665758-0.62137837l401.70040384 414.2522469a41.42522469 41.42522469 0 1 1-59.48662267 57.66391278l-371.33571413-382.93477705-355.6769792 382.3548239z"  horiz-adv-x="1024" />

    
    <glyph glyph-name="financial_fill" unicode="&#59211;" d="M474.72392581 863.59573896c-6.78048078 5.22289233-16.95451597 8.64958691-30.52873359 10.28671179-13.56758959 1.63049684-25.86259628-0.1657009-36.89827613-5.38859323-14.41597819-7.17816293-24.59001339-13.22293172-30.52873359-18.12105029-5.93872021-4.89811856-14.84017249-8.32481315-26.71761292-10.28008375-6.78710881-1.30572308-14.21050909-0.98757735-22.26357275 0.98094932a2371.23288562 2371.23288562 0 0 1-24.80873857 5.87906789 174.35711372 174.35711372 0 0 1-24.17244711 3.91716925c-7.63549742 0.64954753-14.42260622-0.65617556-20.36132644-3.91716925-11.87081238-7.18479098-15.6885611-15.84100592-11.45324612-25.96201682 4.24857105-10.12101089 11.87744042-18.11442225 22.90649225-23.99349016a401.68549074 401.68549074 0 0 0 31.17165306-20.08294892 160.44486625 160.44486625 0 0 0 28.62648728-25.96201681c4.24194301-5.22289233 9.32564658-11.10196021 15.26436678-17.63057563a337.4995906 337.4995906 0 0 0 16.53694971-19.58584624 667.3636838 667.3636838 0 0 0 17.8095326-22.53532222h263.37163653a215.54372912 215.54372912 0 0 1 16.53694971 20.57342357 254.37739175 254.37739175 0 0 0 13.99841191 17.63720367 606.45866144 606.45866144 0 0 0 13.99178389 15.66867699 645.88884732 645.88884732 0 0 0 25.44503002 25.96201682c8.48388603 8.15911225 20.78552075 16.16577968 36.89827615 23.99349015a54.04500514 54.04500514 0 0 1 17.17986918 12.73908509c4.66613731 5.22289233 7.63549742 10.4524127 8.90808031 15.66867698 1.26595487 5.22952036 0.41756626 10.2867118-2.55179384 15.18483037s-8.68935513 8.65621494-17.17324114 11.26766112c-7.63549742 1.96189865-14.21050909 2.61144615-19.71177893 1.96189864-5.52115394-0.65617556-11.02242378-1.79619774-16.54357773-3.42669459-5.51452591-1.63712489-11.24114897-3.42669459-17.1666131-5.38859323-5.94534825-1.96189865-13.15665136-2.93621994-21.63390936-2.93621992-8.48388603 0-15.47646395 1.14002218-20.99098985 3.42669459a79.72201642 79.72201642 0 0 0-15.26436679 8.33144118c-4.67276534 3.26099369-9.54437177 6.69431632-14.63470338 10.2867118s-11.87744042 6.36291451-20.36132643 8.32481315c-16.95451597 5.22289233-30.53536163 6.19721362-40.70939682 2.93621992-10.18729125-3.26099369-20.36132644-8.49051406-30.53536162-15.66867698-8.48388603-6.52861541-15.26436679-11.10858826-20.35469841-13.72003442-2.55179383-1.29909504-4.66613731-1.9552706-6.36291451-1.9552706a84.53397051 84.53397051 0 0 0-13.99841193 6.85338918M295.05775531 557.5196668a1509.8201933 1509.8201933 0 0 0-56.80889614-46.52218434 463.79018762 463.79018762 0 0 1-67.07572382-63.09890226 350.15913927 350.15913927 0 0 1-51.36727861-77.54139259c-13.7001503-28.16252475-23.16498565-58.29357619-28.40113405-90.37327018-5.22952036-32.08632204-4.22868694-65.5976718 3.02901242-100.53404929 6.44907898-31.37712219 19.73829106-62.91994527 39.88752035-94.65498142 20.13597322-31.7284081 47.33080473-60.42780377 81.57786649-86.08493093 34.24043372-25.66375521 75.93740788-46.52218434 125.08429444-62.56203133 49.15351461-16.03984701 105.55810054-24.07302657 169.2071298-24.07302658 62.04504453 0 117.442169 6.95280971 166.18474538 20.86505718 48.74257637 13.90561942 90.85048878 32.61656491 126.29722504 56.14609253 35.4533643 23.52289959 69.09064675 49.91573874 90.43955056 81.63751881 21.35553183 31.72178005 37.48817134 69.91915124 44.73924266 105.57798466 8.05306368 43.49979995 6.04476879 78.15117189 0 113.45209137-6.05139682 35.2876634-20.76563663 67.9373685-36.06977164 95.03277945-15.31739107 27.09541098-33.2396003 50.80389556-53.78651175 71.13208183-20.55353948 20.31493019-40.49067162 37.95876189-59.83128052 52.9314951-23.36382672 17.11358883-39.72181946 27.14843525-57.43855955 42.48571043-17.72336813 15.33064716-30.99932414 20.95784967-43.08223368 33.09378351-14.50214266 13.54770548-33.41192923 23.25115011-43.08223367 34.66462803H372.63228806m280.83651127-440.13472731c17.75650831 0 32.15923043-13.77968674 32.15923043-30.78722699 0-17.00091221-14.39609409-30.78722699-32.15923043-30.78722698h-105.66414912v-26.3795831c0-17.00091221-14.40272212-30.78722699-32.15923044-30.78722698-17.75650831 0-32.15923043 13.77968674-32.15923043 30.78722698v26.3795831H377.82204021c-17.75650831 0-32.15923043 13.77968674-32.15923043 30.78722698 0 17.00091221 14.39609409 30.78722699 32.15923043 30.78722699h105.66414913v70.36985768H377.82204021c-17.75650831 0-32.15923043 13.77968674-32.15923043 30.787227 0 17.00091221 14.39609409 30.78722699 32.15923043 30.78722699H470.17709315l-0.24523733 0.22535321-91.88446238 87.95403708c-12.56012813 12.02325722-12.56012813 31.51631094 0 43.53956815s32.92145457 12.02325722 45.4815827 0l91.88446238-87.96729313 0.23198125-0.21872519 0.23198126 0.21872519 91.88446238 87.9606651c12.5535001 12.02325722 32.91482653 12.02325722 45.47495466 0a29.86592999 29.86592999 0 0 0 0-43.53956816l-91.88446238-87.95403707-0.24523732-0.22535321h92.35505293c17.75650831 0 32.15923043-13.77968674 32.15923043-30.787227s-14.39609409-30.78722699-32.15923043-30.78722699h-105.66414913v-70.36322965h105.67077716z"  horiz-adv-x="1024" />

    
    <glyph glyph-name="jianchagengxin" unicode="&#58926;" d="M949.87109375 414.5859375c0 11.25-0.87890625 22.32421875-1.93359375 33.57421875v0.703125c-0.3515625 10.37109375-0.87890625 20.56640625-2.28515625 30.76171875-2.28515625 18.28125-4.74609375 36.5625-8.4375 54.4921875-4.921875 24.08203125-10.1953125 48.1640625-16.875 71.71875-8.26171875 29.53125-20.0390625 57.65625-35.5078125 84.375-14.0625 24.43359375-31.81640625 45.17578125-54.4921875 62.05078125-16.34765625 12.3046875-34.1015625 22.1484375-52.734375 30.5859375-21.796875 10.01953125-44.47265625 17.9296875-67.5 24.2578125-33.92578125 9.140625-68.203125 15.99609375-103.18359375 19.16015625-20.56640625 1.93359375-40.95703125 4.39453125-61.5234375 4.921875-10.72265625 0.3515625-21.4453125 0.3515625-32.16796875 0.17578125-8.61328125 0.17578125-17.05078125 0.17578125-25.6640625 0-8.4375-0.17578125-17.05078125-0.703125-25.48828125-1.40625-11.77734375-0.52734375-23.73046875-1.58203125-35.5078125-2.8125-5.44921875-0.52734375-11.07421875-1.23046875-16.5234375-1.93359375-5.9765625-0.703125-12.12890625-1.40625-18.10546875-2.4609375-4.39453125-0.52734375-8.61328125-1.23046875-13.0078125-1.93359375-28.828125-4.21875-56.77734375-11.07421875-84.55078125-19.86328125-28.828125-9.140625-56.42578125-20.56640625-82.265625-36.38671875-19.86328125-12.12890625-37.79296875-26.54296875-52.3828125-44.6484375-14.0625-17.578125-25.3125-36.9140625-34.8046875-57.48046875-11.25-24.609375-20.0390625-49.921875-26.89453125-75.9375-10.8984375-40.60546875-17.05078125-81.9140625-21.09375-123.57421875-1.93359375-20.56640625-2.63671875-41.30859375-3.1640625-61.875-0.17578125-5.80078125-0.17578125-11.6015625 0-17.2265625 0-5.80078125-0.17578125-11.6015625 0-17.2265625 0.52734375-20.56640625 1.23046875-41.30859375 3.1640625-61.875 3.8671875-41.66015625 10.1953125-83.14453125 21.09375-123.57421875 7.03125-26.015625 15.64453125-51.328125 26.89453125-75.9375 9.4921875-20.56640625 20.7421875-39.90234375 34.8046875-57.48046875 14.58984375-18.28125 32.51953125-32.51953125 52.3828125-44.6484375 25.83984375-15.8203125 53.61328125-27.24609375 82.265625-36.38671875 27.59765625-8.7890625 55.72265625-15.64453125 84.55078125-19.86328125 4.39453125-0.703125 8.61328125-1.23046875 13.0078125-1.93359375 5.9765625-1.0546875 11.953125-1.7578125 18.10546875-2.4609375 5.44921875-0.703125 11.07421875-1.40625 16.5234375-1.93359375 11.77734375-1.23046875 23.5546875-2.109375 35.5078125-2.8125 8.4375-0.703125 17.05078125-1.0546875 25.48828125-1.40625 8.61328125-0.17578125 17.05078125-0.17578125 25.6640625 0 10.72265625-0.17578125 21.4453125-0.17578125 32.16796875 0.17578125 20.56640625 0.52734375 41.1328125 3.1640625 61.5234375 4.921875 34.98046875 3.1640625 69.43359375 10.01953125 103.18359375 19.16015625 23.203125 6.15234375 45.703125 14.0625 67.5 24.2578125 18.45703125 8.61328125 36.2109375 18.45703125 52.734375 30.5859375 22.5 16.875 40.4296875 37.6171875 54.4921875 62.05078125 15.29296875 26.71875 27.24609375 54.84375 35.5078125 84.375 6.50390625 23.73046875 11.953125 47.63671875 16.875 71.71875 3.69140625 17.9296875 5.9765625 36.38671875 8.4375 54.4921875 1.40625 10.1953125 1.93359375 20.56640625 2.28515625 30.76171875v0.703125c1.0546875 11.25 1.93359375 22.32421875 1.93359375 33.57421875 0 10.1953125 0 20.390625-0.17578125 30.5859375 0.17578125 10.546875 0.17578125 20.7421875 0.17578125 30.9375z m-665.15625-3.8671875c59.4140625 248.37890625 309.375 153.45703125 309.55078125 153.45703125l16.34765625 35.15625c15.29296875 24.2578125 38.3203125 3.8671875 38.3203125 3.8671875l73.828125-123.3984375c13.7109375-25.3125-17.2265625-33.22265625-17.2265625-33.22265625L570.0078125 416.51953125c-48.33984375-7.20703125-33.3984375 27.24609375-33.3984375 27.24609375l16.5234375 35.15625c-202.1484375 74.35546875-268.41796875-68.203125-268.41796875-68.203125z m148.53515625-204.78515625l-15.46875-36.38671875c-14.94140625-25.48828125-38.14453125-5.09765625-38.14453125-5.09765625l-77.34375 124.98046875c-14.4140625 25.6640625 16.34765625 34.453125 16.34765625 34.453125l135.17578125 34.1015625c48.1640625 8.61328125 34.27734375-27.24609375 34.27734375-27.24609375l-15.8203125-36.38671875c204.609375-71.54296875 267.1875 76.2890625 267.1875 76.2890625-53.0859375-256.11328125-306.2109375-164.70703125-306.2109375-164.70703125z"  horiz-adv-x="1024" />

    
    <glyph glyph-name="qizhi" unicode="&#59033;" d="M756.022303 773.802667c86.04703001 0 142.801455 9.122909 195.584 41.766788v-516.406303c-52.782545-32.58181799-107.799273-55.202909-193.846303-55.20291001-85.98497001 0-117.88412101 9.83660601-170.511515 42.635637-52.565333 32.51975801-109.568 42.635636-195.52194 42.63563601-85.922909 0-158.84412099-31.93018199-211.53357501-64.57406V800.14739401c52.689455 32.79903001 125.641697 64.729212 211.53357501 64.729212 85.953939 0 142.987636-10.20897001 195.52194-42.635636 52.689455-32.51975801 82.881939-48.438303 168.773818-48.43830301zM98.148848-114.160485a31.030303 31.030303 0 0 0-31.030303 31.03030301V832.574061a31.030303 31.030303 0 1 0 62.060607 0v-915.70424301a31.030303 31.030303 0 0 0-31.030304-31.03030299z"  horiz-adv-x="1024" />

    
    <glyph glyph-name="youerbao" unicode="&#59030;" d="M859.21788693 886.90477973c56.78386347 4.14501227 115.5282048-2.0164928 167.64893014-26.11637653 43.08851947-19.6467968 80.11355947-51.8266528 106.41197973-91.1342496 32.40391147-47.9196992 49.65612267-104.6475488 56.9659072-161.64146347 8.64010987-69.47096107 3.0387424-140.21623253-12.04293973-208.41288106-20.19293013-90.15401067-57.03592427-176.7091424-108.93259521-253.19581547-44.8529504-65.84407573-101.52478613-124.35035947-169.13329174-166.93475627-43.88671467-27.71276587-92.29653333-48.43782613-142.93289599-60.0046496-66.50223573-15.26372693-136.32328213-15.26372693-203.00756266-1.00824533-98.24798613 20.8790976-188.4019968 71.501456-263.53033814 137.40154453C208.36698773 128.29757227000005 142.06079999 218.75965759999997 97.24986027 318.78607893000003c-23.7638016 53.52106667-41.3801024 110.0108576-49.41806507 168.09703894-7.70188053 55.7336064-6.38555947 113.39968533 9.53632746 167.63492693C73.43004479 708.795296 104.89572693 759.1795968 149.664656 794.3001706699999c47.56961387 37.85124053 107.8963424 57.17595947 168.09704 61.0268992 28.70700907 1.93247147 57.61006507 0.46211307 86.0370048-3.99097387 25.89232107-2.80068373 50.72038293-11.37077653 74.82026667-20.94911467 26.99859093-10.92266667 53.18498453-23.7497984 78.99328533-37.2350912 5.64337813-2.94071787 11.2307424-6.27353173 17.57429119-7.46382186 12.21098133-2.35257387 24.74404053 0.44810987 36.21284054 4.74715946 21.691296 8.1639936 40.9880064 21.22918293 60.6348032 33.28612587 22.9376 14.24147733 46.65939093 27.4326976 71.80953174 37.38912853 36.73096747 14.78761067 75.92653653 22.9516032 115.37416746 25.7942976z m-57.147952-282.89706666c-5.60136747-1.4283488-11.2307424-2.73066667-16.776096-4.3130528-1.4563552-0.4201024-2.884704-0.88221547-4.28504533-1.372336-2.80068373-0.86821227-5.57336107-1.834448-8.3460384-2.74466987-1.442352-0.47611627-2.8707008-0.96623573-4.27104213-1.49836587-2.31056427-0.95223253-4.60712427-1.96047893-6.98770667-2.6746528-4.63513173-2.08650987-9.28426667-4.15901547-13.86338453-6.357552-1.442352-0.6441568-2.8707008-1.31632107-4.29904961-1.97448213-12.6730944-6.5816064-24.88407573-14.03142613-36.4789056-22.37746347-3.76691947-2.73066667-7.43581547-5.58736427-11.17472854-8.34603733-6.5816064-5.5593568-13.24723413-10.99268373-19.45074879-16.972144-10.96467733-9.5923424-21.15916587-20.12291307-29.5332096-32.08183253-9.55033173-13.5413056-16.90212693-28.440944-23.77780586-43.4806144-1.55437973-3.96296747-3.472848-7.7859008-4.81717547-11.8328896l-0.84020481-0.32207787c-0.74218133-3.64088853-2.59063253-6.90368533-4.13100906-10.25050347-2.226544-5.37731307-4.87318933-10.75462613-8.85016106-15.06767786-1.76443093-2.18453333-4.80317227-1.33032427-7.21176-1.6384-5.1252512 4.80317227-6.9737024 11.79087893-10.78263255 17.50427306-14.81561707 24.02986667-37.73921387 42.09427733-62.42724159 55.20147734-0.70017067 0.33608213-2.08650987 0.9942432-2.78667947 1.33032426-1.89046187 0.93822933-3.79492693 1.834448-5.6853888 2.73066667-2.92671467 1.4563552-5.965456 2.6606496-9.10222187 3.54286507l-0.05601386 0.7981952c-13.5132992 4.2990496-27.0546048 8.68211947-41.07202774 11.18873173-31.70373973 5.08324053-64.42973013 4.77516587-95.71336746-2.8707008-1.8624544-0.47611627-3.72490987-0.95223253-5.57336-1.45635627-5.86743253-1.59638933-11.4407936-4.1170048-17.36424-5.44733013l-0.0420096-0.854208c-10.51656747-3.40283093-19.95487147-9.438304-28.8610464-15.86587307-7.1837536-5.9374496-13.98941547-12.96716587-17.4062496-21.78932053l-0.77018773-0.18204373c-0.4201024-1.54037653-0.8402048-3.080752-1.28831468-4.62112854-2.52061547-7.47782613-1.8484512-15.40376107-0.08402025-22.9516032 1.0082464-2.29656107 2.030496-4.60712427 2.81468693-7.00170986 2.0164928-3.9069536 4.41107733-7.5898528 6.84767147-11.24474454 5.20927147-6.46957973 11.30075947-12.22498453 18.27446186-16.7620928 4.38306987-2.2685536 8.6261056-5.02722773 13.49929599-6.1475008l-0.04201065-0.8402048c1.69441387-0.11202773 3.33281387-0.50412267 4.8871936-1.1902912 1.79243733-0.53213013 3.62688533-1.0082464 5.46133333-1.4563552 18.4425024-4.56511467 37.59917973-3.9209568 56.41977386-3.13676586 22.01337387 1.6524032 43.90071787 4.4950976 65.83007147 6.83366826 21.2851968 2.0164928 43.0185024 3.7109056 64.1076512-0.7981952 1.8484512-0.46211307 3.73891307-0.93822933 5.62937494-1.33032426 1.37233493-0.54613333 2.77267733-1.050256 4.20102506-1.48436267 14.1294496-4.14501227 24.6040064-15.92188693 29.56121813-29.4912 0.4341056-1.59638933 0.8121984-3.20678293 1.14827947-4.84518293l0.7701888 0.0140032c5.47533653-20.85109013 3.79492693-42.90647573-1.87645867-63.5335104-5.05523413-18.79258773-6.30153813-38.78946987-1.58238613-57.77810667 0.91022187-2.80068373 1.94647573-5.5593568 2.688656-8.4300576 4.9152-12.21098133 12.8971488-23.23167147 23.69378453-30.8775392 3.41683413-1.8764576 6.83366827-3.9069536 10.67060587-4.81717547l0.11202666-0.77018773c7.29578133-1.6524032 14.84362347-2.15652693 22.11139841 0 11.8889024 4.25703893 19.4787552 15.10968853 23.58175787 26.57848853 7.47782613 24.29593173 2.21253973 49.7961568 0.54613333 74.51219094-0.70017067 18.6525536-1.28831467 37.62718613 3.54286506 55.83163093 1.10626987 4.3130528 2.36657813 8.5980992 4.1450112 12.7011008 0.95223253 2.32456747 1.93247147 4.63513173 2.98272853 6.9176896 7.91193173 16.0059072 21.03313493 29.099104 36.52091627 37.80923093 3.6828992 2.12851947 7.30978453 4.4950976 11.48280321 5.5313504l0.56013652 0.89621867c4.41107733 1.47035947 8.65411307 3.41683413 13.09319681 4.84518293 30.97556267 10.4605536 63.9256064 12.79912427 96.39953492 13.62532587 26.3964448 1.442352 52.77888533 4.4810944 78.61519361 10.2084928 1.8764576 0.49011947 3.73891307 0.98023893 5.64337814 1.442352 1.8624544 0.46211307 3.7109056 0.91022187 5.60136746 1.37233493 3.20678293 1.0362528 6.45557653 1.98848533 9.73237547 2.80068374 1.4003424 0.49011947 2.78668053 1.0082464 4.17301867 1.58238613 1.59638933 0.3780928 3.19277973 0.74218133 4.81717652 1.07826347l0.09802348 0.74218133c2.15652693 0.6301536 4.2850464 1.35833173 6.44157332 2.01649173 3.17877653 1.52637227 6.42756907 2.95472107 9.73237547 4.2430368 6.7636512 3.34681707 13.40127147 7.00170987 19.71681387 11.14672107 8.71012693 6.07748373 16.483424 13.5132992 22.39146667 22.37746347 2.0164928 3.61288213 3.8789472 7.32378773 5.43332693 11.17472746 0.46211307 1.4563552 0.92422613 2.91271147 1.40034134 4.35506347 2.8987072 11.2307424 1.80644053 22.99361387-1.4283488 34.014304-0.46211307 1.4003424-0.91022187 2.78668053-1.33032428 4.18702293-1.6243968 3.864944-3.43083733 7.64586667-5.503344 11.272752-13.26123733 19.08666027-34.210352 31.3396512-55.41152852 39.7557056l-0.16804054 0.7981952c-3.80893013 0.85420907-7.3938048 2.4365952-11.14672106 3.43083734l-0.02800747 0.7981952c-7.22576427 1.34432853-14.17146027 3.94896427-21.35521387 5.5173472-33.42616107 6.7916576-68.11262933 5.3212992-101.3987552-1.4283488z"  horiz-adv-x="1244" />

    
    <glyph glyph-name="baochi" unicode="&#59034;" d="M869.74824044 364.73661314000003L725.83700987 563.20486463l143.91123057 198.55110195c15.74158539 21.74824297 18.807052 46.06484987 8.28504493 66.73603697-10.52200707 20.6297619-32.06312391 32.51880139-59.0723704 32.51880139H222.1062776A82.80902416 82.80902416 0 0 1 139.17297778 778.45033212V-50.34413828000004a41.42522469 41.42522469 0 0 1 82.85044939 0V265.48177477h596.9374878c27.17494739 0 48.79891469 11.88903949 59.32092174 32.47737616 10.43915662 20.50548622 7.37368999 44.86351835-8.53359627 66.77746221"  horiz-adv-x="1024" />

    
    <glyph glyph-name="bi" unicode="&#59035;" d="M987.1473272 628.2016995500001l-228.8743664 228.8329412a82.89187461 82.89187461 0 0 1-117.10911022-0.28997657l-87.20009796-87.2415232 58.07816501-57.78818845 1.24275674 0.24855135h0.04142522l228.6672403-228.58438984 39.22968779-39.35396346 19.22130425-19.26272948 86.37159349 86.37159348a82.85044939 82.85044939 0 0 1 0.28997656 117.06768497m-716.03500879-636.91282963l-17.60572049 17.64714573-114.33362015 114.74787238-18.22709886 18.30994932-52.69288581 56.17260469L56.32252839 210.8425608v-202.11367129c0-45.48489671 36.99272565-82.43619714 82.43619714-82.43619713h199.62815779l-15.07878179 14.49882865-52.23720834 50.45592367z m283.67993869 662.14079147l-58.57526771 58.32671637-414.45937304-414.45937305 58.57526772-58.5752677 228.54296462-228.75009075 58.49241726-58.28529115 412.92663972 412.92663974-56.8768335 60.19085146z"  horiz-adv-x="1024" />

    
    <glyph glyph-name="dilizuobiao" unicode="&#59036;" d="M346.29910124 508.23424885c0 91.38404567 74.3168531 165.70089876 165.70089876 165.70089877s165.70089876-74.3168531 165.70089876-165.70089877-74.3168531-165.70089876-165.70089876-165.70089877-165.70089876 74.3168531-165.70089876 165.70089877m166.11515101 372.82702222h-0.8285045c-205.34483879-0.20712613-372.41276997-167.39933298-372.41276997-372.82702222 0-104.22586533 82.89187461-252.44531927 164.04388977-372.82702222a2623.25235358 2623.25235358 0 0 1 150.82924312-201.40944245 74.97965669 74.97965669 0 0 1 57.99531456-28.29342847h0.12427567a74.44112877 74.44112877 0 0 1 57.62248755 28.08630234 2620.47686352 2620.47686352 0 0 1 150.994944 201.61656858C801.93514762 255.78892957999994 884.82702222 404.00838352 884.82702222 508.23424885c0 205.42768925-167.06793118 372.6198961-372.41276997 372.82702222"  horiz-adv-x="1024" />

    
    <glyph glyph-name="duanxin" unicode="&#59037;" d="M512 301.14955061a41.42522469 41.42522469 0 0 0-22.24534565 6.46233506L14.8973037 609.8088997899999v-557.50067389A82.85044939 82.85044939 0 0 1 97.83060354-30.252246910000054h828.33879292A82.85044939 82.85044939 0 0 1 1009.1026963 52.308225900000025V609.39464755l-474.85735065-301.78276188A41.54950036 41.54950036 0 0 0 512 301.14955061M926.16939646 798.2522469099999H97.83060354A82.85044939 82.85044939 0 0 1 14.8973037 715.65034889v-6.33805939L512 391.66366657l497.1026963 315.90876349v8.07791883A82.85044939 82.85044939 0 0 1 926.16939646 798.2522469099999"  horiz-adv-x="1024" />

    
    <glyph glyph-name="faduanxin" unicode="&#59038;" d="M802.90133333 53.84305777999998L432.57400889 196.80711111000005l494.35192889 515.16188444-650.42887111-454.90972444-275.72906667 106.44366222 1009.38410667 445.74037334-207.24963557-755.40024889z m-387.15505778-46.54307555V138.66552889000002l136.70058667-42.60636444-136.70058667-88.75918224z"  horiz-adv-x="1024" />

    
    <glyph glyph-name="dianhua" unicode="&#59039;" d="M911.929 199.856c-91.373 57.534-105.296 65.56-137.443 60.479-32.15-5.073-41.701-11.973-87.96800001-76.96900001-6.538-7.983-68.614-104.042-291.38699999 109.95400001C231.8 461.73200001 280.165 522.84499999 311.069 562.4549999999999c26.874 25.09599999 57.019 36.22799999 61.48 81.06899999 1.927 20.64700001-0.735 62.959-68.543 155.89900001-45.442 66.37400001-54.479 71.68899999-84.811 72.30099999-30.33200001 0.602-78.674-14.414-128.369-54.47899999-49.147-33.02000001-64.307-71.722-69.552-117.08-5.537-57.181-16.44399999-250.74799999 228.84700001-521.05000001 245.294-270.306 562.34599999-328.422 672.83099999-251.72799999 47.599 33.778 86.488 108.888 88.165 157.229 5.966 33.349-7.815 57.71600001-99.188 115.24z"  horiz-adv-x="1024" />

    
    <glyph glyph-name="fenxiang" unicode="&#59040;" d="M801.97657283 259.72432591999996a165.41092219 165.41092219 0 0 1-149.17223411-94.86376453L387.55862503 316.39403330000005a39.93391661 39.93391661 0 0 1-12.55184308 4.14252247A165.28664652 165.28664652 0 0 1 387.72432592 384c0 8.61644674-1.28418196 16.9429169-2.56836393 25.18653662 0.78707927 0.41425225 1.65700898 0.53852791 2.40266304 0.99420539l284.30131705 162.42830601A164.83096905 164.83096905 0 0 1 801.97657283 508.27567408c91.38404567 0 165.70089876 74.3168531 165.70089878 165.70089875s-74.3168531 165.70089876-165.70089878 165.70089878-165.70089876-74.3168531-165.70089875-165.70089878c0-8.69929718 1.28418196-17.02576735 2.56836393-25.39366273-0.78707927-0.37282702-1.65700898-0.33140179-2.40266304-0.78707926L352.14005792 485.36752482A164.83096905 164.83096905 0 0 1 222.02342717 549.70089876c-91.38404567 0-165.70089876-74.3168531-165.70089878-165.70089876s74.3168531-165.70089876 165.70089878-165.70089876a164.29244112 164.29244112 0 0 1 109.44544362 42.25372918 40.4310193 40.4310193 0 0 1 14.99593134-16.07298719l289.97657284-165.70089875c0.45567747-0.28997657 0.95278017-0.33140179 1.44988286-0.57995315C645.96917665-5.645663450000029 716.01923161-71.67747161 801.97657283-71.67747161c91.38404567 0 165.70089876 74.3168531 165.70089878 165.70089878s-74.3168531 165.70089876-165.70089878 165.70089875"  horiz-adv-x="1024" />

    
    <glyph glyph-name="guanbi" unicode="&#45059;" d="M690.41844275 264.15682497a41.38379947 41.38379947 0 1 0-58.57526772-58.57526772L503.71495506 333.70977723l-128.12821997-128.12821998a41.30094901 41.30094901 0 0 0-58.57526771 0 41.42522469 41.42522469 0 0 0 0 58.57526772l128.12821997 128.12821997-128.12821997 128.12821997a41.42522469 41.42522469 0 0 0 58.57526771 58.57526771l128.12821997-128.12821997 128.12821997 128.12821997a41.42522469 41.42522469 0 0 0 58.57526772-58.57526771L562.29022277 392.28504494l128.12821998-128.12821997zM512 881.1026963c-274.06928656 0-497.1026963-223.03340974-497.1026963-497.1026963 0-274.11071179 223.03340974-497.1026963 497.1026963-497.1026963 274.11071179 0 497.1026963 222.99198451 497.1026963 497.1026963 0 274.06928656-222.99198451 497.1026963-497.1026963 497.1026963z"  horiz-adv-x="1024" />

    
    <glyph glyph-name="laba" unicode="&#59043;" d="M816.10257445 645.68314437a39.35396347 39.35396347 0 0 1-54.51559569-12.05474037 40.67957065 40.67957065 0 0 1 11.51621247-55.63407677c1.40845763-0.95278017 13.46319803-9.40352601 28.8733816-26.30501768 31.40032032-34.46578693 77.05091792-104.5158419 77.05091793-221.83207822 0-121.83158581-47.01763003-192.87584617-77.05091793-225.85032502-13.17322145-14.49882864-23.15670061-21.70681774-24.31660688-22.53532222a40.59672019 40.59672019 0 0 1-11.01910977-55.88262812 39.49765721 39.49765721 0 0 1 33.0573293-17.89569707c0.74565405 0 1.53273331 0.28997657 2.27838735 0.3314018a39.4368139 39.4368139 0 0 1 19.67698174 6.42090983c5.59240533 3.76969545 136.7446667 94.98804021 136.74466671 315.45308602 0 220.83787283-136.45469013 312.01479237-142.29564683 315.78448782m-123.53002002-118.26901649a39.22968779 39.22968779 0 0 1-52.32005878-18.93132769 40.84527155 40.84527155 0 0 1 18.10282319-53.72851642c2.48551348-1.3256072 61.97213614-32.64307707 61.97213613-121.95586149 0-95.36086723-55.59265154-126.96831369-57.41536142-128.0039443a40.55529497 40.55529497 0 0 1-17.81284662-54.05991821A39.68536525 39.68536525 0 0 1 698.41351111 132.67316179c4.10109725 2.15411168 101.24324915 53.14856329 101.24324916 200.12526049 0 141.83996933-102.73455724 192.50301915-107.08420584 194.6157056M561.21316693 793.8611731a56.75255783 56.75255783 0 0 1-13.17322145 3.72827022c-13.17322145 2.07126124-32.43595093 0.33140179-53.06571283-18.47565022l-44.82209311-40.72099586L429.14955061 719.29576865l-131.56651362-119.59462368H138.80015075a82.76759893 82.76759893 0 0 1-82.47762236-82.85044939V250.81790261000003c0-45.6505976 37.03415088-82.85044939 82.47762236-82.85044937h110.85390128L429.14955061 4.793493170000033l65.82468204-59.81802446c16.65294032-15.07878178 32.39452571-19.3041547 44.78066788-19.30415469 3.10689185 0 5.63383056 0.53852791 8.28504495 0.99420539a57.58106231 57.58106231 0 0 1 13.29749713 3.47971887C571.44519743-65.38083744999994 594.85044939-50.716307909999955 594.85044939-11.072367880000002V735.24448016c0 1.11848107-0.33140179 2.07126124-0.37282702 3.14831708-0.95278017 25.80791499-13.04894578 46.4791021-33.26445544 55.46837586"  horiz-adv-x="1024" />

    
    <glyph glyph-name="fanhui" unicode="&#40966;" d="M747.95807984-0.5089355799999566L365.02330279 370.82677855l382.35482391 355.6769792a41.42522469 41.42522469 0 0 1-56.46258126 60.64652895l-414.25224691-385.37886531a41.42522469 41.42522469 0 0 1-0.6628036-60.06657579l414.25224692-401.70040384a41.46664992 41.46664992 0 0 1 57.70533799 59.48662266"  horiz-adv-x="1024" />

    
    </font>
</defs>
</svg>
